<?xml version="1.0" encoding="UTF-8" standalone="no"?>
<!DOCTYPE svg PUBLIC "-//W3C//DTD SVG 1.1//EN"
 "http://www.w3.org/Graphics/SVG/1.1/DTD/svg11.dtd">
<!-- Generated by graphviz version 2.40.1 (20161225.0304)
 -->
<!-- Title: asset Pages: 1 -->
<svg width="294pt" height="255pt"
 viewBox="0.00 0.00 294.00 255.00" xmlns="http://www.w3.org/2000/svg" xmlns:xlink="http://www.w3.org/1999/xlink">
<g id="graph0" class="graph" transform="scale(1 1) rotate(0) translate(4 251)">
<title>asset</title>
<polygon fill="#ffffff" stroke="transparent" points="-4,4 -4,-251 290,-251 290,4 -4,4"/>
<!-- asset -->
<g id="node1" class="node">
<title>asset</title>
<polygon fill="#efefef" stroke="transparent" points="46,-165.5 46,-200.5 240,-200.5 240,-165.5 46,-165.5"/>
<polygon fill="none" stroke="#000000" points="46,-165.5 46,-200.5 240,-200.5 240,-165.5 46,-165.5"/>
<text text-anchor="start" x="100.4843" y="-178.3" font-family="Arial Bold" font-size="18.00" fill="#000000">asset</text>
<text text-anchor="start" x="143.4989" y="-178.3" font-family="Arial" font-size="14.00" fill="#000000"> </text>
<text text-anchor="start" x="147.3895" y="-178.3" font-family="Arial" font-size="14.00" fill="#666666">[table]</text>
<polygon fill="none" stroke="#000000" points="46,-135.5 46,-165.5 240,-165.5 240,-135.5 46,-135.5"/>
<text text-anchor="start" x="53" y="-146.9" font-family="Arial" font-size="14.00" fill="#000000">num </text>
<text text-anchor="start" x="84.1164" y="-146.9" font-family="Arial" font-size="14.00" fill="#666666">[INTEGER]</text>
<polygon fill="none" stroke="#000000" points="46,-105.5 46,-135.5 240,-135.5 240,-105.5 46,-105.5"/>
<text text-anchor="start" x="53" y="-116.9" font-family="Arial" font-size="14.00" fill="#000000">bartdept </text>
<text text-anchor="start" x="108.2454" y="-116.9" font-family="Arial" font-size="14.00" fill="#666666">[VARCHAR(8)]</text>
<polygon fill="none" stroke="#000000" points="46,-75.5 46,-105.5 240,-105.5 240,-75.5 46,-75.5"/>
<text text-anchor="start" x="52.7728" y="-86.9" font-family="Arial" font-size="14.00" fill="#000000">description </text>
<text text-anchor="start" x="124.3408" y="-86.9" font-family="Arial" font-size="14.00" fill="#666666">[VARCHAR(128)]</text>
<polygon fill="none" stroke="#000000" points="46,-45.5 46,-75.5 240,-75.5 240,-45.5 46,-45.5"/>
<text text-anchor="start" x="53" y="-56.9" font-family="Arial" font-size="14.00" fill="#000000">status </text>
<text text-anchor="start" x="94.237" y="-56.9" font-family="Arial" font-size="14.00" fill="#666666">[VARCHAR(16)]</text>
<polygon fill="none" stroke="#000000" stroke-width="3" points="44.5,-44.5 44.5,-202.5 241.5,-202.5 241.5,-44.5 44.5,-44.5"/>
</g>
</g>
</svg>
