<?xml version="1.0" encoding="UTF-8" standalone="no"?>
<!DOCTYPE svg PUBLIC "-//W3C//DTD SVG 1.1//EN"
 "http://www.w3.org/Graphics/SVG/1.1/DTD/svg11.dtd">
<!-- Generated by graphviz version 2.40.1 (20161225.0304)
 -->
<!-- Title: meter_readings Pages: 1 -->
<svg width="367pt" height="765pt"
 viewBox="0.00 0.00 367.00 765.00" xmlns="http://www.w3.org/2000/svg" xmlns:xlink="http://www.w3.org/1999/xlink">
<g id="graph0" class="graph" transform="scale(1 1) rotate(0) translate(4 761)">
<title>meter_readings</title>
<polygon fill="#ffffff" stroke="transparent" points="-4,4 -4,-761 363,-761 363,4 -4,4"/>
<!-- meter_readings -->
<g id="node1" class="node">
<title>meter_readings</title>
<polygon fill="#efefef" stroke="transparent" points="46.5,-675.5 46.5,-710.5 313.5,-710.5 313.5,-675.5 46.5,-675.5"/>
<polygon fill="none" stroke="#000000" points="46.5,-675.5 46.5,-710.5 313.5,-710.5 313.5,-675.5 46.5,-675.5"/>
<text text-anchor="start" x="96.4803" y="-688.3" font-family="Arial Bold" font-size="18.00" fill="#000000">meter_readings</text>
<text text-anchor="start" x="221.5029" y="-688.3" font-family="Arial" font-size="14.00" fill="#000000"> </text>
<text text-anchor="start" x="225.3935" y="-688.3" font-family="Arial" font-size="14.00" fill="#666666">[table]</text>
<polygon fill="none" stroke="#000000" points="46.5,-645.5 46.5,-675.5 313.5,-675.5 313.5,-645.5 46.5,-645.5"/>
<text text-anchor="start" x="53.5" y="-656.9" font-family="Arial" font-size="14.00" fill="#000000">project </text>
<text text-anchor="start" x="99.3962" y="-656.9" font-family="Arial" font-size="14.00" fill="#666666">[VARCHAR(14)]</text>
<polygon fill="none" stroke="#000000" points="46.5,-615.5 46.5,-645.5 313.5,-645.5 313.5,-615.5 46.5,-615.5"/>
<text text-anchor="start" x="53.5" y="-626.9" font-family="Arial" font-size="14.00" fill="#000000">department </text>
<text text-anchor="start" x="128.1886" y="-626.9" font-family="Arial" font-size="14.00" fill="#666666">[VARCHAR(32)]</text>
<polygon fill="none" stroke="#000000" points="46.5,-585.5 46.5,-615.5 313.5,-615.5 313.5,-585.5 46.5,-585.5"/>
<text text-anchor="start" x="53.5" y="-596.9" font-family="Arial" font-size="14.00" fill="#000000">meter_name </text>
<text text-anchor="start" x="135.9586" y="-596.9" font-family="Arial" font-size="14.00" fill="#666666">[VARCHAR(32)]</text>
<polygon fill="none" stroke="#000000" points="46.5,-555.5 46.5,-585.5 313.5,-585.5 313.5,-555.5 46.5,-555.5"/>
<text text-anchor="start" x="53.5" y="-566.9" font-family="Arial" font-size="14.00" fill="#000000">meter_description </text>
<text text-anchor="start" x="168.6276" y="-566.9" font-family="Arial" font-size="14.00" fill="#666666">[VARCHAR(256)]</text>
<polygon fill="none" stroke="#000000" points="46.5,-525.5 46.5,-555.5 313.5,-555.5 313.5,-525.5 46.5,-525.5"/>
<text text-anchor="start" x="53.5" y="-536.9" font-family="Arial" font-size="14.00" fill="#000000">meter_reading </text>
<text text-anchor="start" x="147.6304" y="-536.9" font-family="Arial" font-size="14.00" fill="#666666">[INTEGER]</text>
<polygon fill="none" stroke="#000000" points="46.5,-495.5 46.5,-525.5 313.5,-525.5 313.5,-495.5 46.5,-495.5"/>
<text text-anchor="start" x="53.5" y="-506.9" font-family="Arial" font-size="14.00" fill="#000000">reading_date </text>
<text text-anchor="start" x="139.0918" y="-506.9" font-family="Arial" font-size="14.00" fill="#666666">[VARCHAR(32)]</text>
<polygon fill="none" stroke="#000000" points="46.5,-465.5 46.5,-495.5 313.5,-495.5 313.5,-465.5 46.5,-465.5"/>
<text text-anchor="start" x="53.5" y="-476.9" font-family="Arial" font-size="14.00" fill="#000000">meter_unit </text>
<text text-anchor="start" x="123.5126" y="-476.9" font-family="Arial" font-size="14.00" fill="#666666">[VARCHAR(64)]</text>
<polygon fill="none" stroke="#000000" points="46.5,-435.5 46.5,-465.5 313.5,-465.5 313.5,-435.5 46.5,-435.5"/>
<text text-anchor="start" x="53.5" y="-446.9" font-family="Arial" font-size="14.00" fill="#000000">goal </text>
<text text-anchor="start" x="83.845" y="-446.9" font-family="Arial" font-size="14.00" fill="#666666">[INTEGER]</text>
<polygon fill="none" stroke="#000000" points="46.5,-405.5 46.5,-435.5 313.5,-435.5 313.5,-405.5 46.5,-405.5"/>
<text text-anchor="start" x="53.5" y="-416.9" font-family="Arial" font-size="14.00" fill="#000000">completion </text>
<text text-anchor="start" x="125.068" y="-416.9" font-family="Arial" font-size="14.00" fill="#666666">[FLOAT]</text>
<polygon fill="none" stroke="#000000" points="46.5,-375.5 46.5,-405.5 313.5,-405.5 313.5,-375.5 46.5,-375.5"/>
<text text-anchor="start" x="53.5" y="-386.9" font-family="Arial" font-size="14.00" fill="#000000">goal_group </text>
<text text-anchor="start" x="127.4186" y="-386.9" font-family="Arial" font-size="14.00" fill="#666666">[VARCHAR(64)]</text>
<polygon fill="none" stroke="#000000" points="46.5,-345.5 46.5,-375.5 313.5,-375.5 313.5,-345.5 46.5,-345.5"/>
<text text-anchor="start" x="53.5" y="-356.9" font-family="Arial" font-size="14.00" fill="#000000">work_order_num </text>
<text text-anchor="start" x="162.4004" y="-356.9" font-family="Arial" font-size="14.00" fill="#666666">[INTEGER]</text>
<polygon fill="none" stroke="#000000" points="46.5,-315.5 46.5,-345.5 313.5,-345.5 313.5,-315.5 46.5,-315.5"/>
<text text-anchor="start" x="53.5" y="-326.9" font-family="Arial" font-size="14.00" fill="#000000">description </text>
<text text-anchor="start" x="125.068" y="-326.9" font-family="Arial" font-size="14.00" fill="#666666">[VARCHAR(256)]</text>
<polygon fill="none" stroke="#000000" points="46.5,-285.5 46.5,-315.5 313.5,-315.5 313.5,-285.5 46.5,-285.5"/>
<text text-anchor="start" x="53.5" y="-296.9" font-family="Arial" font-size="14.00" fill="#000000">cur_status </text>
<text text-anchor="start" x="121.9628" y="-296.9" font-family="Arial" font-size="14.00" fill="#666666">[VARCHAR(32)]</text>
<polygon fill="none" stroke="#000000" points="46.5,-255.5 46.5,-285.5 313.5,-285.5 313.5,-255.5 46.5,-255.5"/>
<text text-anchor="start" x="53.5" y="-266.9" font-family="Arial" font-size="14.00" fill="#000000">reported_date </text>
<text text-anchor="start" x="144.5364" y="-266.9" font-family="Arial" font-size="14.00" fill="#666666">[VARCHAR(32)]</text>
<polygon fill="none" stroke="#000000" points="46.5,-225.5 46.5,-255.5 313.5,-255.5 313.5,-225.5 46.5,-225.5"/>
<text text-anchor="start" x="53.5" y="-236.9" font-family="Arial" font-size="14.00" fill="#000000">location </text>
<text text-anchor="start" x="105.6248" y="-236.9" font-family="Arial" font-size="14.00" fill="#666666">[VARCHAR(16)]</text>
<polygon fill="none" stroke="#000000" points="46.5,-195.5 46.5,-225.5 313.5,-225.5 313.5,-195.5 46.5,-195.5"/>
<text text-anchor="start" x="53.5" y="-206.9" font-family="Arial" font-size="14.00" fill="#000000">proj_type </text>
<text text-anchor="start" x="114.9614" y="-206.9" font-family="Arial" font-size="14.00" fill="#666666">[VARCHAR(16)]</text>
<polygon fill="none" stroke="#000000" points="46.5,-165.5 46.5,-195.5 313.5,-195.5 313.5,-165.5 46.5,-165.5"/>
<text text-anchor="start" x="53.5" y="-176.9" font-family="Arial" font-size="14.00" fill="#000000">tpid </text>
<text text-anchor="start" x="79.953" y="-176.9" font-family="Arial" font-size="14.00" fill="#666666">[INTEGER]</text>
<polygon fill="none" stroke="#000000" points="46.5,-135.5 46.5,-165.5 313.5,-165.5 313.5,-135.5 46.5,-135.5"/>
<text text-anchor="start" x="53.5" y="-146.9" font-family="Arial" font-size="14.00" fill="#000000">ps_project </text>
<text text-anchor="start" x="121.9614" y="-146.9" font-family="Arial" font-size="14.00" fill="#666666">[VARCHAR(16)]</text>
<polygon fill="none" stroke="#000000" points="46.5,-105.5 46.5,-135.5 313.5,-135.5 313.5,-105.5 46.5,-105.5"/>
<text text-anchor="start" x="53.5" y="-116.9" font-family="Arial" font-size="14.00" fill="#000000">ps_proj_description </text>
<text text-anchor="start" x="178.7482" y="-116.9" font-family="Arial" font-size="14.00" fill="#666666">[VARCHAR(256)]</text>
<polygon fill="none" stroke="#000000" points="46.5,-75.5 46.5,-105.5 313.5,-105.5 313.5,-75.5 46.5,-75.5"/>
<text text-anchor="start" x="53.5" y="-86.9" font-family="Arial" font-size="14.00" fill="#000000">ps_activity </text>
<text text-anchor="start" x="122.7328" y="-86.9" font-family="Arial" font-size="14.00" fill="#666666">[VARCHAR(16)]</text>
<polygon fill="none" stroke="#000000" points="46.5,-45.5 46.5,-75.5 313.5,-75.5 313.5,-45.5 46.5,-45.5"/>
<text text-anchor="start" x="53.2104" y="-56.9" font-family="Arial" font-size="14.00" fill="#000000">ps_activity_description </text>
<text text-anchor="start" x="197.9032" y="-56.9" font-family="Arial" font-size="14.00" fill="#666666">[VARCHAR(256)]</text>
<polygon fill="none" stroke="#000000" stroke-width="3" points="44.5,-44.5 44.5,-712.5 314.5,-712.5 314.5,-44.5 44.5,-44.5"/>
</g>
</g>
</svg>
