<?xml version="1.0" encoding="UTF-8" standalone="no"?>
<!DOCTYPE svg PUBLIC "-//W3C//DTD SVG 1.1//EN"
 "http://www.w3.org/Graphics/SVG/1.1/DTD/svg11.dtd">
<!-- Generated by graphviz version 2.40.1 (20161225.0304)
 -->
<!-- Title: meter_reading Pages: 1 -->
<svg width="307pt" height="345pt"
 viewBox="0.00 0.00 307.00 345.00" xmlns="http://www.w3.org/2000/svg" xmlns:xlink="http://www.w3.org/1999/xlink">
<g id="graph0" class="graph" transform="scale(1 1) rotate(0) translate(4 341)">
<title>meter_reading</title>
<polygon fill="#ffffff" stroke="transparent" points="-4,4 -4,-341 303,-341 303,4 -4,4"/>
<!-- meter_reading -->
<g id="node1" class="node">
<title>meter_reading</title>
<polygon fill="#efefef" stroke="transparent" points="46.5,-255.5 46.5,-290.5 253.5,-290.5 253.5,-255.5 46.5,-255.5"/>
<polygon fill="none" stroke="#000000" points="46.5,-255.5 46.5,-290.5 253.5,-290.5 253.5,-255.5 46.5,-255.5"/>
<text text-anchor="start" x="70.9803" y="-268.3" font-family="Arial Bold" font-size="18.00" fill="#000000">meter_reading</text>
<text text-anchor="start" x="187.0029" y="-268.3" font-family="Arial" font-size="14.00" fill="#000000"> </text>
<text text-anchor="start" x="190.8935" y="-268.3" font-family="Arial" font-size="14.00" fill="#666666">[table]</text>
<polygon fill="none" stroke="#000000" points="46.5,-225.5 46.5,-255.5 253.5,-255.5 253.5,-225.5 46.5,-225.5"/>
<text text-anchor="start" x="53.5" y="-236.9" font-family="Arial" font-size="14.00" fill="#000000">assetnum </text>
<text text-anchor="start" x="118.0722" y="-236.9" font-family="Arial" font-size="14.00" fill="#666666">[INTEGER]</text>
<polygon fill="none" stroke="#000000" points="46.5,-195.5 46.5,-225.5 253.5,-225.5 253.5,-195.5 46.5,-195.5"/>
<text text-anchor="start" x="53.5" y="-206.9" font-family="Arial" font-size="14.00" fill="#000000">metername </text>
<text text-anchor="start" x="128.176" y="-206.9" font-family="Arial" font-size="14.00" fill="#666666">[VARCHAR(16)]</text>
<polygon fill="none" stroke="#000000" points="46.5,-165.5 46.5,-195.5 253.5,-195.5 253.5,-165.5 46.5,-165.5"/>
<text text-anchor="start" x="53.1585" y="-176.9" font-family="Arial" font-size="14.00" fill="#000000">readingsource </text>
<text text-anchor="start" x="145.7377" y="-176.9" font-family="Arial" font-size="14.00" fill="#666666">[VARCHAR(32)]</text>
<polygon fill="none" stroke="#000000" points="46.5,-135.5 46.5,-165.5 253.5,-165.5 253.5,-135.5 46.5,-135.5"/>
<text text-anchor="start" x="53.5" y="-146.9" font-family="Arial" font-size="14.00" fill="#000000">reading </text>
<text text-anchor="start" x="104.0708" y="-146.9" font-family="Arial" font-size="14.00" fill="#666666">[INTEGER]</text>
<polygon fill="none" stroke="#000000" points="46.5,-105.5 46.5,-135.5 253.5,-135.5 253.5,-105.5 46.5,-105.5"/>
<text text-anchor="start" x="53.5" y="-116.9" font-family="Arial" font-size="14.00" fill="#000000">delta </text>
<text text-anchor="start" x="87.7356" y="-116.9" font-family="Arial" font-size="14.00" fill="#666666">[INTEGER]</text>
<polygon fill="none" stroke="#000000" points="46.5,-75.5 46.5,-105.5 253.5,-105.5 253.5,-75.5 46.5,-75.5"/>
<text text-anchor="start" x="53.5" y="-86.9" font-family="Arial" font-size="14.00" fill="#000000">readingdate </text>
<text text-anchor="start" x="131.3092" y="-86.9" font-family="Arial" font-size="14.00" fill="#666666">[DATE]</text>
<polygon fill="none" stroke="#000000" points="46.5,-45.5 46.5,-75.5 253.5,-75.5 253.5,-45.5 46.5,-45.5"/>
<text text-anchor="start" x="53.5" y="-56.9" font-family="Arial" font-size="14.00" fill="#000000">enterdate </text>
<text text-anchor="start" x="116.528" y="-56.9" font-family="Arial" font-size="14.00" fill="#666666">[DATE]</text>
<polygon fill="none" stroke="#000000" stroke-width="3" points="44.5,-44.5 44.5,-292.5 254.5,-292.5 254.5,-44.5 44.5,-44.5"/>
</g>
</g>
</svg>
