<?xml version="1.0" encoding="UTF-8" standalone="no"?>
<!DOCTYPE svg PUBLIC "-//W3C//DTD SVG 1.1//EN"
 "http://www.w3.org/Graphics/SVG/1.1/DTD/svg11.dtd">
<!-- Generated by graphviz version 2.40.1 (20161225.0304)
 -->
<!-- Title: mpu Pages: 1 -->
<svg width="334pt" height="765pt"
 viewBox="0.00 0.00 334.00 765.00" xmlns="http://www.w3.org/2000/svg" xmlns:xlink="http://www.w3.org/1999/xlink">
<g id="graph0" class="graph" transform="scale(1 1) rotate(0) translate(4 761)">
<title>mpu</title>
<polygon fill="#ffffff" stroke="transparent" points="-4,4 -4,-761 330,-761 330,4 -4,4"/>
<!-- mpu -->
<g id="node1" class="node">
<title>mpu</title>
<polygon fill="#efefef" stroke="transparent" points="46,-675.5 46,-710.5 280,-710.5 280,-675.5 46,-675.5"/>
<polygon fill="none" stroke="#000000" points="46,-675.5 46,-710.5 280,-710.5 280,-675.5 46,-675.5"/>
<text text-anchor="start" x="124.4893" y="-688.3" font-family="Arial Bold" font-size="18.00" fill="#000000">mpu</text>
<text text-anchor="start" x="159.4939" y="-688.3" font-family="Arial" font-size="14.00" fill="#000000"> </text>
<text text-anchor="start" x="163.3845" y="-688.3" font-family="Arial" font-size="14.00" fill="#666666">[table]</text>
<polygon fill="none" stroke="#000000" points="46,-645.5 46,-675.5 280,-675.5 280,-645.5 46,-645.5"/>
<text text-anchor="start" x="53" y="-656.9" font-family="Arial" font-size="14.00" fill="#000000">id </text>
<text text-anchor="start" x="67.7798" y="-656.9" font-family="Arial" font-size="14.00" fill="#666666">[VARCHAR(14)]</text>
<polygon fill="none" stroke="#000000" points="46,-615.5 46,-645.5 280,-645.5 280,-615.5 46,-615.5"/>
<text text-anchor="start" x="53" y="-626.9" font-family="Arial" font-size="14.00" fill="#000000">name </text>
<text text-anchor="start" x="91.899" y="-626.9" font-family="Arial" font-size="14.00" fill="#666666">[VARCHAR(128)]</text>
<polygon fill="none" stroke="#000000" points="46,-585.5 46,-615.5 280,-615.5 280,-585.5 46,-585.5"/>
<text text-anchor="start" x="53" y="-596.9" font-family="Arial" font-size="14.00" fill="#000000">short_name </text>
<text text-anchor="start" x="130.798" y="-596.9" font-family="Arial" font-size="14.00" fill="#666666">[VARCHAR(128)]</text>
<polygon fill="none" stroke="#000000" points="46,-555.5 46,-585.5 280,-585.5 280,-555.5 46,-555.5"/>
<text text-anchor="start" x="53" y="-566.9" font-family="Arial" font-size="14.00" fill="#000000">ranking </text>
<text text-anchor="start" x="102.7882" y="-566.9" font-family="Arial" font-size="14.00" fill="#666666">[INTEGER]</text>
<polygon fill="none" stroke="#000000" points="46,-525.5 46,-555.5 280,-555.5 280,-525.5 46,-525.5"/>
<text text-anchor="start" x="53" y="-536.9" font-family="Arial" font-size="14.00" fill="#000000">description </text>
<text text-anchor="start" x="124.568" y="-536.9" font-family="Arial" font-size="14.00" fill="#666666">[VARCHAR(512)]</text>
<polygon fill="none" stroke="#000000" points="46,-495.5 46,-525.5 280,-525.5 280,-495.5 46,-495.5"/>
<text text-anchor="start" x="53" y="-506.9" font-family="Arial" font-size="14.00" fill="#000000">location </text>
<text text-anchor="start" x="105.1248" y="-506.9" font-family="Arial" font-size="14.00" fill="#666666">[VARCHAR(32)]</text>
<polygon fill="none" stroke="#000000" points="46,-465.5 46,-495.5 280,-495.5 280,-465.5 46,-465.5"/>
<text text-anchor="start" x="53" y="-476.9" font-family="Arial" font-size="14.00" fill="#000000">sub_location </text>
<text text-anchor="start" x="135.4726" y="-476.9" font-family="Arial" font-size="14.00" fill="#666666">[VARCHAR(32)]</text>
<polygon fill="none" stroke="#000000" points="46,-435.5 46,-465.5 280,-465.5 280,-435.5 46,-435.5"/>
<text text-anchor="start" x="53" y="-446.9" font-family="Arial" font-size="14.00" fill="#000000">district_location </text>
<text text-anchor="start" x="153.345" y="-446.9" font-family="Arial" font-size="14.00" fill="#666666">[VARCHAR(64)]</text>
<polygon fill="none" stroke="#000000" points="46,-405.5 46,-435.5 280,-435.5 280,-405.5 46,-405.5"/>
<text text-anchor="start" x="53" y="-416.9" font-family="Arial" font-size="14.00" fill="#000000">mpu_phase </text>
<text text-anchor="start" x="130.0294" y="-416.9" font-family="Arial" font-size="14.00" fill="#666666">[VARCHAR(32)]</text>
<polygon fill="none" stroke="#000000" points="46,-375.5 46,-405.5 280,-405.5 280,-375.5 46,-375.5"/>
<text text-anchor="start" x="53" y="-386.9" font-family="Arial" font-size="14.00" fill="#000000">budget_amount </text>
<text text-anchor="start" x="154.1584" y="-386.9" font-family="Arial" font-size="14.00" fill="#666666">[FLOAT]</text>
<polygon fill="none" stroke="#000000" points="46,-345.5 46,-375.5 280,-375.5 280,-345.5 46,-345.5"/>
<text text-anchor="start" x="53" y="-356.9" font-family="Arial" font-size="14.00" fill="#000000">expended_amount </text>
<text text-anchor="start" x="172.833" y="-356.9" font-family="Arial" font-size="14.00" fill="#666666">[FLOAT]</text>
<polygon fill="none" stroke="#000000" points="46,-315.5 46,-345.5 280,-345.5 280,-315.5 46,-315.5"/>
<text text-anchor="start" x="53" y="-326.9" font-family="Arial" font-size="14.00" fill="#000000">monthly_burn_rate </text>
<text text-anchor="start" x="173.5862" y="-326.9" font-family="Arial" font-size="14.00" fill="#666666">[FLOAT]</text>
<polygon fill="none" stroke="#000000" points="46,-285.5 46,-315.5 280,-315.5 280,-285.5 46,-285.5"/>
<text text-anchor="start" x="53" y="-296.9" font-family="Arial" font-size="14.00" fill="#000000">remaining_budget </text>
<text text-anchor="start" x="168.9242" y="-296.9" font-family="Arial" font-size="14.00" fill="#666666">[FLOAT]</text>
<polygon fill="none" stroke="#000000" points="46,-255.5 46,-285.5 280,-285.5 280,-255.5 46,-255.5"/>
<text text-anchor="start" x="53" y="-266.9" font-family="Arial" font-size="14.00" fill="#000000">funding_level </text>
<text text-anchor="start" x="139.3618" y="-266.9" font-family="Arial" font-size="14.00" fill="#666666">[VARCHAR(16)]</text>
<polygon fill="none" stroke="#000000" points="46,-225.5 46,-255.5 280,-255.5 280,-225.5 46,-225.5"/>
<text text-anchor="start" x="53" y="-236.9" font-family="Arial" font-size="14.00" fill="#000000">rr_funded </text>
<text text-anchor="start" x="116.798" y="-236.9" font-family="Arial" font-size="14.00" fill="#666666">[BOOLEAN]</text>
<polygon fill="none" stroke="#000000" points="46,-195.5 46,-225.5 280,-225.5 280,-195.5 46,-195.5"/>
<text text-anchor="start" x="53" y="-206.9" font-family="Arial" font-size="14.00" fill="#000000">project_group </text>
<text text-anchor="start" x="142.4698" y="-206.9" font-family="Arial" font-size="14.00" fill="#666666">[VARCHAR(64)]</text>
<polygon fill="none" stroke="#000000" points="46,-165.5 46,-195.5 280,-195.5 280,-165.5 46,-165.5"/>
<text text-anchor="start" x="53" y="-176.9" font-family="Arial" font-size="14.00" fill="#000000">project_manager </text>
<text text-anchor="start" x="161.913" y="-176.9" font-family="Arial" font-size="14.00" fill="#666666">[VARCHAR(32)]</text>
<polygon fill="none" stroke="#000000" points="46,-135.5 46,-165.5 280,-165.5 280,-135.5 46,-135.5"/>
<text text-anchor="start" x="52.5512" y="-146.9" font-family="Arial" font-size="14.00" fill="#000000">accomplishments </text>
<text text-anchor="start" x="164.5624" y="-146.9" font-family="Arial" font-size="14.00" fill="#666666">[VARCHAR(128)]</text>
<polygon fill="none" stroke="#000000" points="46,-105.5 46,-135.5 280,-135.5 280,-105.5 46,-105.5"/>
<text text-anchor="start" x="53" y="-116.9" font-family="Arial" font-size="14.00" fill="#000000">program </text>
<text text-anchor="start" x="109.0028" y="-116.9" font-family="Arial" font-size="14.00" fill="#666666">[VARCHAR(32)]</text>
<polygon fill="none" stroke="#000000" points="46,-75.5 46,-105.5 280,-105.5 280,-75.5 46,-75.5"/>
<text text-anchor="start" x="53" y="-86.9" font-family="Arial" font-size="14.00" fill="#000000">review_format </text>
<text text-anchor="start" x="144.7798" y="-86.9" font-family="Arial" font-size="14.00" fill="#666666">[VARCHAR(32)]</text>
<polygon fill="none" stroke="#000000" points="46,-45.5 46,-75.5 280,-75.5 280,-45.5 46,-45.5"/>
<text text-anchor="start" x="53" y="-56.9" font-family="Arial" font-size="14.00" fill="#000000">end_date </text>
<text text-anchor="start" x="115.2594" y="-56.9" font-family="Arial" font-size="14.00" fill="#666666">[DATE]</text>
<polygon fill="none" stroke="#000000" stroke-width="3" points="44.5,-44.5 44.5,-712.5 281.5,-712.5 281.5,-44.5 44.5,-44.5"/>
</g>
</g>
</svg>
