<?xml version="1.0" encoding="UTF-8" standalone="no"?>
<!DOCTYPE svg PUBLIC "-//W3C//DTD SVG 1.1//EN"
 "http://www.w3.org/Graphics/SVG/1.1/DTD/svg11.dtd">
<!-- Generated by graphviz version 2.40.1 (20161225.0304)
 -->
<!-- Title: public.meter_reading Pages: 1 -->
<svg width="379pt" height="345pt"
 viewBox="0.00 0.00 379.00 345.00" xmlns="http://www.w3.org/2000/svg" xmlns:xlink="http://www.w3.org/1999/xlink">
<g id="graph0" class="graph" transform="scale(1 1) rotate(0) translate(4 341)">
<title>public.meter_reading</title>
<polygon fill="#ffffff" stroke="transparent" points="-4,4 -4,-341 375,-341 375,4 -4,4"/>
<!-- public.meter_reading -->
<g id="node1" class="node">
<title>public.meter_reading</title>
<polygon fill="#efefef" stroke="transparent" points="46.5,-255.5 46.5,-290.5 325.5,-290.5 325.5,-255.5 46.5,-255.5"/>
<polygon fill="none" stroke="#000000" points="46.5,-255.5 46.5,-290.5 325.5,-290.5 325.5,-255.5 46.5,-255.5"/>
<text text-anchor="start" x="53.3572" y="-268.3" font-family="Arial Bold" font-size="18.00" fill="#000000">public.meter_reading</text>
<text text-anchor="start" x="221.389" y="-268.3" font-family="Arial" font-size="14.00" fill="#000000"> </text>
<text text-anchor="start" x="225.2796" y="-268.3" font-family="Arial" font-size="14.00" fill="#666666">[BASE TABLE]</text>
<polygon fill="none" stroke="#000000" points="46.5,-225.5 46.5,-255.5 325.5,-255.5 325.5,-225.5 46.5,-225.5"/>
<text text-anchor="start" x="53.5" y="-236.9" font-family="Arial" font-size="14.00" fill="#000000">assetnum </text>
<text text-anchor="start" x="118.0722" y="-236.9" font-family="Arial" font-size="14.00" fill="#666666">[integer]</text>
<polygon fill="none" stroke="#000000" points="46.5,-195.5 46.5,-225.5 325.5,-225.5 325.5,-195.5 46.5,-195.5"/>
<text text-anchor="start" x="53.5" y="-206.9" font-family="Arial" font-size="14.00" fill="#000000">metername </text>
<text text-anchor="start" x="128.176" y="-206.9" font-family="Arial" font-size="14.00" fill="#666666">[varchar(16)]</text>
<polygon fill="none" stroke="#000000" points="46.5,-165.5 46.5,-195.5 325.5,-195.5 325.5,-165.5 46.5,-165.5"/>
<text text-anchor="start" x="53.5" y="-176.9" font-family="Arial" font-size="14.00" fill="#000000">readingsource </text>
<text text-anchor="start" x="146.0792" y="-176.9" font-family="Arial" font-size="14.00" fill="#666666">[varchar(32)]</text>
<polygon fill="none" stroke="#000000" points="46.5,-135.5 46.5,-165.5 325.5,-165.5 325.5,-135.5 46.5,-135.5"/>
<text text-anchor="start" x="53.5" y="-146.9" font-family="Arial" font-size="14.00" fill="#000000">reading </text>
<text text-anchor="start" x="104.0708" y="-146.9" font-family="Arial" font-size="14.00" fill="#666666">[double precision]</text>
<polygon fill="none" stroke="#000000" points="46.5,-105.5 46.5,-135.5 325.5,-135.5 325.5,-105.5 46.5,-105.5"/>
<text text-anchor="start" x="53.5" y="-116.9" font-family="Arial" font-size="14.00" fill="#000000">delta </text>
<text text-anchor="start" x="87.7356" y="-116.9" font-family="Arial" font-size="14.00" fill="#666666">[double precision]</text>
<polygon fill="none" stroke="#000000" points="46.5,-75.5 46.5,-105.5 325.5,-105.5 325.5,-75.5 46.5,-75.5"/>
<text text-anchor="start" x="53.5" y="-86.9" font-family="Arial" font-size="14.00" fill="#000000">readingdate </text>
<text text-anchor="start" x="131.3092" y="-86.9" font-family="Arial" font-size="14.00" fill="#666666">[date]</text>
<polygon fill="none" stroke="#000000" points="46.5,-45.5 46.5,-75.5 325.5,-75.5 325.5,-45.5 46.5,-45.5"/>
<text text-anchor="start" x="53.5" y="-56.9" font-family="Arial" font-size="14.00" fill="#000000">enterdate </text>
<text text-anchor="start" x="116.528" y="-56.9" font-family="Arial" font-size="14.00" fill="#666666">[date]</text>
<polygon fill="none" stroke="#000000" stroke-width="3" points="44.5,-44.5 44.5,-292.5 326.5,-292.5 326.5,-44.5 44.5,-44.5"/>
</g>
</g>
</svg>
