<?xml version="1.0" encoding="UTF-8" standalone="no"?>
<!DOCTYPE svg PUBLIC "-//W3C//DTD SVG 1.1//EN"
 "http://www.w3.org/Graphics/SVG/1.1/DTD/svg11.dtd">
<!-- Generated by graphviz version 2.40.1 (20161225.0304)
 -->
<!-- Title: bart_dashboard Pages: 1 -->
<svg width="3542pt" height="819pt"
 viewBox="0.00 0.00 3542.00 819.00" xmlns="http://www.w3.org/2000/svg" xmlns:xlink="http://www.w3.org/1999/xlink">
<g id="graph0" class="graph" transform="scale(1 1) rotate(0) translate(4 815)">
<title>bart_dashboard</title>
<polygon fill="#ffffff" stroke="transparent" points="-4,4 -4,-815 3538,-815 3538,4 -4,4"/>
<!-- public._tmp_project_meter -->
<g id="node1" class="node">
<title>public._tmp_project_meter</title>
<polygon fill="#efefef" stroke="transparent" points="43.5,-732.5 43.5,-767.5 366.5,-767.5 366.5,-732.5 43.5,-732.5"/>
<polygon fill="none" stroke="#000000" points="43.5,-732.5 43.5,-767.5 366.5,-767.5 366.5,-732.5 43.5,-732.5"/>
<text text-anchor="start" x="50.3558" y="-745.3" font-family="Arial Bold" font-size="18.00" fill="#000000">public._tmp_project_meter</text>
<text text-anchor="start" x="262.3904" y="-745.3" font-family="Arial" font-size="14.00" fill="#000000"> </text>
<text text-anchor="start" x="266.281" y="-745.3" font-family="Arial" font-size="14.00" fill="#666666">[BASE TABLE]</text>
<polygon fill="none" stroke="#000000" points="43.5,-702.5 43.5,-732.5 366.5,-732.5 366.5,-702.5 43.5,-702.5"/>
<text text-anchor="start" x="50.5" y="-713.9" font-family="Arial" font-size="14.00" fill="#000000">project </text>
<text text-anchor="start" x="96.3962" y="-713.9" font-family="Arial" font-size="14.00" fill="#666666">[varchar(30)]</text>
<polygon fill="none" stroke="#000000" points="43.5,-672.5 43.5,-702.5 366.5,-702.5 366.5,-672.5 43.5,-672.5"/>
<text text-anchor="start" x="50.5" y="-683.9" font-family="Arial" font-size="14.00" fill="#000000">department </text>
<text text-anchor="start" x="125.1886" y="-683.9" font-family="Arial" font-size="14.00" fill="#666666">[varchar(20)]</text>
<polygon fill="none" stroke="#000000" points="43.5,-642.5 43.5,-672.5 366.5,-672.5 366.5,-642.5 43.5,-642.5"/>
<text text-anchor="start" x="50.5" y="-653.9" font-family="Arial" font-size="14.00" fill="#000000">meter_location </text>
<text text-anchor="start" x="146.1844" y="-653.9" font-family="Arial" font-size="14.00" fill="#666666">[varchar(8)]</text>
<polygon fill="none" stroke="#000000" points="43.5,-612.5 43.5,-642.5 366.5,-642.5 366.5,-612.5 43.5,-612.5"/>
<text text-anchor="start" x="50.5" y="-623.9" font-family="Arial" font-size="14.00" fill="#000000">metername </text>
<text text-anchor="start" x="125.176" y="-623.9" font-family="Arial" font-size="14.00" fill="#666666">[varchar(10)]</text>
<polygon fill="none" stroke="#000000" points="43.5,-582.5 43.5,-612.5 366.5,-612.5 366.5,-582.5 43.5,-582.5"/>
<text text-anchor="start" x="50.5" y="-593.9" font-family="Arial" font-size="14.00" fill="#000000">meter_description </text>
<text text-anchor="start" x="165.6276" y="-593.9" font-family="Arial" font-size="14.00" fill="#666666">[varchar(128)]</text>
<polygon fill="none" stroke="#000000" points="43.5,-552.5 43.5,-582.5 366.5,-582.5 366.5,-552.5 43.5,-552.5"/>
<text text-anchor="start" x="50.5" y="-563.9" font-family="Arial" font-size="14.00" fill="#000000">meter_reading </text>
<text text-anchor="start" x="144.6304" y="-563.9" font-family="Arial" font-size="14.00" fill="#666666">[double precision]</text>
<polygon fill="none" stroke="#000000" points="43.5,-522.5 43.5,-552.5 366.5,-552.5 366.5,-522.5 43.5,-522.5"/>
<text text-anchor="start" x="50.5" y="-533.9" font-family="Arial" font-size="14.00" fill="#000000">reading_date </text>
<text text-anchor="start" x="136.0918" y="-533.9" font-family="Arial" font-size="14.00" fill="#666666">[date]</text>
<polygon fill="none" stroke="#000000" points="43.5,-492.5 43.5,-522.5 366.5,-522.5 366.5,-492.5 43.5,-492.5"/>
<text text-anchor="start" x="50.5" y="-503.9" font-family="Arial" font-size="14.00" fill="#000000">meter_units_sql </text>
<text text-anchor="start" x="153.1844" y="-503.9" font-family="Arial" font-size="14.00" fill="#666666">[varchar(4)]</text>
<polygon fill="none" stroke="#000000" points="43.5,-462.5 43.5,-492.5 366.5,-492.5 366.5,-462.5 43.5,-462.5"/>
<text text-anchor="start" x="50.5" y="-473.9" font-family="Arial" font-size="14.00" fill="#000000">meter_units_from_project </text>
<text text-anchor="start" x="213.0778" y="-473.9" font-family="Arial" font-size="14.00" fill="#666666">[varchar(22)]</text>
<polygon fill="none" stroke="#000000" points="43.5,-432.5 43.5,-462.5 366.5,-462.5 366.5,-432.5 43.5,-432.5"/>
<text text-anchor="start" x="50.5" y="-443.9" font-family="Arial" font-size="14.00" fill="#000000">meter_units </text>
<text text-anchor="start" x="127.5126" y="-443.9" font-family="Arial" font-size="14.00" fill="#666666">[varchar(22)]</text>
<polygon fill="none" stroke="#000000" points="43.5,-402.5 43.5,-432.5 366.5,-432.5 366.5,-402.5 43.5,-402.5"/>
<text text-anchor="start" x="50.5" y="-413.9" font-family="Arial" font-size="14.00" fill="#000000">goal </text>
<text text-anchor="start" x="80.845" y="-413.9" font-family="Arial" font-size="14.00" fill="#666666">[integer]</text>
<polygon fill="none" stroke="#000000" points="43.5,-372.5 43.5,-402.5 366.5,-402.5 366.5,-372.5 43.5,-372.5"/>
<text text-anchor="start" x="50.5" y="-383.9" font-family="Arial" font-size="14.00" fill="#000000">completion_percent </text>
<text text-anchor="start" x="176.5322" y="-383.9" font-family="Arial" font-size="14.00" fill="#666666">[varchar(8)]</text>
<polygon fill="none" stroke="#000000" points="43.5,-342.5 43.5,-372.5 366.5,-372.5 366.5,-342.5 43.5,-342.5"/>
<text text-anchor="start" x="50.5" y="-353.9" font-family="Arial" font-size="14.00" fill="#000000">goal_group </text>
<text text-anchor="start" x="124.4186" y="-353.9" font-family="Arial" font-size="14.00" fill="#666666">[varchar(32)]</text>
<polygon fill="none" stroke="#000000" points="43.5,-312.5 43.5,-342.5 366.5,-342.5 366.5,-312.5 43.5,-312.5"/>
<text text-anchor="start" x="50.5" y="-323.9" font-family="Arial" font-size="14.00" fill="#000000">workorder_num </text>
<text text-anchor="start" x="151.6178" y="-323.9" font-family="Arial" font-size="14.00" fill="#666666">[integer]</text>
<polygon fill="none" stroke="#000000" points="43.5,-282.5 43.5,-312.5 366.5,-312.5 366.5,-282.5 43.5,-282.5"/>
<text text-anchor="start" x="50.5" y="-293.9" font-family="Arial" font-size="14.00" fill="#000000">description </text>
<text text-anchor="start" x="122.068" y="-293.9" font-family="Arial" font-size="14.00" fill="#666666">[varchar(128)]</text>
<polygon fill="none" stroke="#000000" points="43.5,-252.5 43.5,-282.5 366.5,-282.5 366.5,-252.5 43.5,-252.5"/>
<text text-anchor="start" x="50.5" y="-263.9" font-family="Arial" font-size="14.00" fill="#000000">current_status </text>
<text text-anchor="start" x="143.0792" y="-263.9" font-family="Arial" font-size="14.00" fill="#666666">[varchar(20)]</text>
<polygon fill="none" stroke="#000000" points="43.5,-222.5 43.5,-252.5 366.5,-252.5 366.5,-222.5 43.5,-222.5"/>
<text text-anchor="start" x="50.5" y="-233.9" font-family="Arial" font-size="14.00" fill="#000000">reported_date </text>
<text text-anchor="start" x="141.5364" y="-233.9" font-family="Arial" font-size="14.00" fill="#666666">[date]</text>
<polygon fill="none" stroke="#000000" points="43.5,-192.5 43.5,-222.5 366.5,-222.5 366.5,-192.5 43.5,-192.5"/>
<text text-anchor="start" x="50.5" y="-203.9" font-family="Arial" font-size="14.00" fill="#000000">type </text>
<text text-anchor="start" x="80.8464" y="-203.9" font-family="Arial" font-size="14.00" fill="#666666">[text]</text>
<polygon fill="none" stroke="#000000" points="43.5,-162.5 43.5,-192.5 366.5,-192.5 366.5,-162.5 43.5,-162.5"/>
<text text-anchor="start" x="50.5" y="-173.9" font-family="Arial" font-size="14.00" fill="#000000">tpid </text>
<text text-anchor="start" x="76.953" y="-173.9" font-family="Arial" font-size="14.00" fill="#666666">[integer]</text>
<polygon fill="none" stroke="#000000" points="43.5,-132.5 43.5,-162.5 366.5,-162.5 366.5,-132.5 43.5,-132.5"/>
<text text-anchor="start" x="50.5" y="-143.9" font-family="Arial" font-size="14.00" fill="#000000">ps_project </text>
<text text-anchor="start" x="118.9614" y="-143.9" font-family="Arial" font-size="14.00" fill="#666666">[varchar(20)]</text>
<polygon fill="none" stroke="#000000" points="43.5,-102.5 43.5,-132.5 366.5,-132.5 366.5,-102.5 43.5,-102.5"/>
<text text-anchor="start" x="50.5" y="-113.9" font-family="Arial" font-size="14.00" fill="#000000">ps_project_description </text>
<text text-anchor="start" x="194.4214" y="-113.9" font-family="Arial" font-size="14.00" fill="#666666">[text]</text>
<polygon fill="none" stroke="#000000" points="43.5,-72.5 43.5,-102.5 366.5,-102.5 366.5,-72.5 43.5,-72.5"/>
<text text-anchor="start" x="50.5" y="-83.9" font-family="Arial" font-size="14.00" fill="#000000">ps_activity </text>
<text text-anchor="start" x="119.7328" y="-83.9" font-family="Arial" font-size="14.00" fill="#666666">[varchar(20)]</text>
<polygon fill="none" stroke="#000000" points="43.5,-42.5 43.5,-72.5 366.5,-72.5 366.5,-42.5 43.5,-42.5"/>
<text text-anchor="start" x="50.5" y="-53.9" font-family="Arial" font-size="14.00" fill="#000000">ps_activity_description </text>
<text text-anchor="start" x="195.1928" y="-53.9" font-family="Arial" font-size="14.00" fill="#666666">[text]</text>
</g>
<!-- public.alembic_version -->
<g id="node2" class="node">
<title>public.alembic_version</title>
<polygon fill="#efefef" stroke="transparent" points="470.5,-402.5 470.5,-437.5 763.5,-437.5 763.5,-402.5 470.5,-402.5"/>
<polygon fill="none" stroke="#000000" points="470.5,-402.5 470.5,-437.5 763.5,-437.5 763.5,-402.5 470.5,-402.5"/>
<text text-anchor="start" x="477.3633" y="-415.3" font-family="Arial Bold" font-size="18.00" fill="#000000">public.alembic_version</text>
<text text-anchor="start" x="659.3829" y="-415.3" font-family="Arial" font-size="14.00" fill="#000000"> </text>
<text text-anchor="start" x="663.2735" y="-415.3" font-family="Arial" font-size="14.00" fill="#666666">[BASE TABLE]</text>
<polygon fill="none" stroke="#000000" points="470.5,-372.5 470.5,-402.5 763.5,-402.5 763.5,-372.5 470.5,-372.5"/>
<text text-anchor="start" x="477.5" y="-383.9" font-family="Arial" font-size="14.00" fill="#000000">version_num </text>
<text text-anchor="start" x="561.514" y="-383.9" font-family="Arial" font-size="14.00" fill="#666666">[varchar(32)]</text>
</g>
<!-- public.asset -->
<g id="node3" class="node">
<title>public.asset</title>
<polygon fill="#efefef" stroke="transparent" points="867.5,-462.5 867.5,-497.5 1073.5,-497.5 1073.5,-462.5 867.5,-462.5"/>
<polygon fill="none" stroke="#000000" points="867.5,-462.5 867.5,-497.5 1073.5,-497.5 1073.5,-462.5 867.5,-462.5"/>
<text text-anchor="start" x="874.3612" y="-475.3" font-family="Arial Bold" font-size="18.00" fill="#000000">public.asset</text>
<text text-anchor="start" x="969.385" y="-475.3" font-family="Arial" font-size="14.00" fill="#000000"> </text>
<text text-anchor="start" x="973.2756" y="-475.3" font-family="Arial" font-size="14.00" fill="#666666">[BASE TABLE]</text>
<polygon fill="none" stroke="#000000" points="867.5,-432.5 867.5,-462.5 1073.5,-462.5 1073.5,-432.5 867.5,-432.5"/>
<text text-anchor="start" x="874.5" y="-443.9" font-family="Arial" font-size="14.00" fill="#000000">num </text>
<text text-anchor="start" x="905.6164" y="-443.9" font-family="Arial" font-size="14.00" fill="#666666">[integer]</text>
<polygon fill="none" stroke="#000000" points="867.5,-402.5 867.5,-432.5 1073.5,-432.5 1073.5,-402.5 867.5,-402.5"/>
<text text-anchor="start" x="874.5" y="-413.9" font-family="Arial" font-size="14.00" fill="#000000">bartdept </text>
<text text-anchor="start" x="929.7454" y="-413.9" font-family="Arial" font-size="14.00" fill="#666666">[varchar(8)]</text>
<polygon fill="none" stroke="#000000" points="867.5,-372.5 867.5,-402.5 1073.5,-402.5 1073.5,-372.5 867.5,-372.5"/>
<text text-anchor="start" x="874.5" y="-383.9" font-family="Arial" font-size="14.00" fill="#000000">description </text>
<text text-anchor="start" x="946.068" y="-383.9" font-family="Arial" font-size="14.00" fill="#666666">[varchar(128)]</text>
<polygon fill="none" stroke="#000000" points="867.5,-342.5 867.5,-372.5 1073.5,-372.5 1073.5,-342.5 867.5,-342.5"/>
<text text-anchor="start" x="874.5" y="-353.9" font-family="Arial" font-size="14.00" fill="#000000">status </text>
<text text-anchor="start" x="915.737" y="-353.9" font-family="Arial" font-size="14.00" fill="#666666">[varchar(16)]</text>
<polygon fill="none" stroke="#000000" points="867.5,-312.5 867.5,-342.5 1073.5,-342.5 1073.5,-312.5 867.5,-312.5"/>
<text text-anchor="start" x="874.5" y="-323.9" font-family="Arial" font-size="14.00" fill="#000000">search_vec </text>
<text text-anchor="start" x="949.9642" y="-323.9" font-family="Arial" font-size="14.00" fill="#666666">[tsvector]</text>
</g>
<!-- public.meter_reading -->
<g id="node4" class="node">
<title>public.meter_reading</title>
<polygon fill="#efefef" stroke="transparent" points="1178.5,-492.5 1178.5,-527.5 1457.5,-527.5 1457.5,-492.5 1178.5,-492.5"/>
<polygon fill="none" stroke="#000000" points="1178.5,-492.5 1178.5,-527.5 1457.5,-527.5 1457.5,-492.5 1178.5,-492.5"/>
<text text-anchor="start" x="1185.3572" y="-505.3" font-family="Arial Bold" font-size="18.00" fill="#000000">public.meter_reading</text>
<text text-anchor="start" x="1353.389" y="-505.3" font-family="Arial" font-size="14.00" fill="#000000"> </text>
<text text-anchor="start" x="1357.2796" y="-505.3" font-family="Arial" font-size="14.00" fill="#666666">[BASE TABLE]</text>
<polygon fill="none" stroke="#000000" points="1178.5,-462.5 1178.5,-492.5 1457.5,-492.5 1457.5,-462.5 1178.5,-462.5"/>
<text text-anchor="start" x="1185.5" y="-473.9" font-family="Arial" font-size="14.00" fill="#000000">assetnum </text>
<text text-anchor="start" x="1250.0722" y="-473.9" font-family="Arial" font-size="14.00" fill="#666666">[integer]</text>
<polygon fill="none" stroke="#000000" points="1178.5,-432.5 1178.5,-462.5 1457.5,-462.5 1457.5,-432.5 1178.5,-432.5"/>
<text text-anchor="start" x="1185.5" y="-443.9" font-family="Arial" font-size="14.00" fill="#000000">metername </text>
<text text-anchor="start" x="1260.176" y="-443.9" font-family="Arial" font-size="14.00" fill="#666666">[varchar(16)]</text>
<polygon fill="none" stroke="#000000" points="1178.5,-402.5 1178.5,-432.5 1457.5,-432.5 1457.5,-402.5 1178.5,-402.5"/>
<text text-anchor="start" x="1185.5" y="-413.9" font-family="Arial" font-size="14.00" fill="#000000">readingsource </text>
<text text-anchor="start" x="1278.0792" y="-413.9" font-family="Arial" font-size="14.00" fill="#666666">[varchar(32)]</text>
<polygon fill="none" stroke="#000000" points="1178.5,-372.5 1178.5,-402.5 1457.5,-402.5 1457.5,-372.5 1178.5,-372.5"/>
<text text-anchor="start" x="1185.5" y="-383.9" font-family="Arial" font-size="14.00" fill="#000000">reading </text>
<text text-anchor="start" x="1236.0708" y="-383.9" font-family="Arial" font-size="14.00" fill="#666666">[double precision]</text>
<polygon fill="none" stroke="#000000" points="1178.5,-342.5 1178.5,-372.5 1457.5,-372.5 1457.5,-342.5 1178.5,-342.5"/>
<text text-anchor="start" x="1185.5" y="-353.9" font-family="Arial" font-size="14.00" fill="#000000">delta </text>
<text text-anchor="start" x="1219.7356" y="-353.9" font-family="Arial" font-size="14.00" fill="#666666">[double precision]</text>
<polygon fill="none" stroke="#000000" points="1178.5,-312.5 1178.5,-342.5 1457.5,-342.5 1457.5,-312.5 1178.5,-312.5"/>
<text text-anchor="start" x="1185.5" y="-323.9" font-family="Arial" font-size="14.00" fill="#000000">readingdate </text>
<text text-anchor="start" x="1263.3092" y="-323.9" font-family="Arial" font-size="14.00" fill="#666666">[date]</text>
<polygon fill="none" stroke="#000000" points="1178.5,-282.5 1178.5,-312.5 1457.5,-312.5 1457.5,-282.5 1178.5,-282.5"/>
<text text-anchor="start" x="1185.5" y="-293.9" font-family="Arial" font-size="14.00" fill="#000000">enterdate </text>
<text text-anchor="start" x="1248.528" y="-293.9" font-family="Arial" font-size="14.00" fill="#666666">[date]</text>
</g>
<!-- public.mpu -->
<g id="node5" class="node">
<title>public.mpu</title>
<polygon fill="#efefef" stroke="transparent" points="1561.5,-717.5 1561.5,-752.5 1805.5,-752.5 1805.5,-717.5 1561.5,-717.5"/>
<polygon fill="none" stroke="#000000" points="1561.5,-717.5 1561.5,-752.5 1805.5,-752.5 1805.5,-717.5 1561.5,-717.5"/>
<text text-anchor="start" x="1591.3662" y="-730.3" font-family="Arial Bold" font-size="18.00" fill="#000000">public.mpu</text>
<text text-anchor="start" x="1678.38" y="-730.3" font-family="Arial" font-size="14.00" fill="#000000"> </text>
<text text-anchor="start" x="1682.2706" y="-730.3" font-family="Arial" font-size="14.00" fill="#666666">[BASE TABLE]</text>
<polygon fill="none" stroke="#000000" points="1561.5,-687.5 1561.5,-717.5 1805.5,-717.5 1805.5,-687.5 1561.5,-687.5"/>
<text text-anchor="start" x="1568.5" y="-698.9" font-family="Arial" font-size="14.00" fill="#000000">id </text>
<text text-anchor="start" x="1583.2798" y="-698.9" font-family="Arial" font-size="14.00" fill="#666666">[varchar(14)]</text>
<polygon fill="none" stroke="#000000" points="1561.5,-657.5 1561.5,-687.5 1805.5,-687.5 1805.5,-657.5 1561.5,-657.5"/>
<text text-anchor="start" x="1568.5" y="-668.9" font-family="Arial" font-size="14.00" fill="#000000">name </text>
<text text-anchor="start" x="1607.399" y="-668.9" font-family="Arial" font-size="14.00" fill="#666666">[varchar(128)]</text>
<polygon fill="none" stroke="#000000" points="1561.5,-627.5 1561.5,-657.5 1805.5,-657.5 1805.5,-627.5 1561.5,-627.5"/>
<text text-anchor="start" x="1568.5" y="-638.9" font-family="Arial" font-size="14.00" fill="#000000">short_name </text>
<text text-anchor="start" x="1646.298" y="-638.9" font-family="Arial" font-size="14.00" fill="#666666">[varchar(128)]</text>
<polygon fill="none" stroke="#000000" points="1561.5,-597.5 1561.5,-627.5 1805.5,-627.5 1805.5,-597.5 1561.5,-597.5"/>
<text text-anchor="start" x="1568.5" y="-608.9" font-family="Arial" font-size="14.00" fill="#000000">ranking </text>
<text text-anchor="start" x="1618.2882" y="-608.9" font-family="Arial" font-size="14.00" fill="#666666">[integer]</text>
<polygon fill="none" stroke="#000000" points="1561.5,-567.5 1561.5,-597.5 1805.5,-597.5 1805.5,-567.5 1561.5,-567.5"/>
<text text-anchor="start" x="1568.5" y="-578.9" font-family="Arial" font-size="14.00" fill="#000000">description </text>
<text text-anchor="start" x="1640.068" y="-578.9" font-family="Arial" font-size="14.00" fill="#666666">[text]</text>
<polygon fill="none" stroke="#000000" points="1561.5,-537.5 1561.5,-567.5 1805.5,-567.5 1805.5,-537.5 1561.5,-537.5"/>
<text text-anchor="start" x="1568.5" y="-548.9" font-family="Arial" font-size="14.00" fill="#000000">location </text>
<text text-anchor="start" x="1620.6248" y="-548.9" font-family="Arial" font-size="14.00" fill="#666666">[varchar(128)]</text>
<polygon fill="none" stroke="#000000" points="1561.5,-507.5 1561.5,-537.5 1805.5,-537.5 1805.5,-507.5 1561.5,-507.5"/>
<text text-anchor="start" x="1568.5" y="-518.9" font-family="Arial" font-size="14.00" fill="#000000">sub_location </text>
<text text-anchor="start" x="1650.9726" y="-518.9" font-family="Arial" font-size="14.00" fill="#666666">[varchar(128)]</text>
<polygon fill="none" stroke="#000000" points="1561.5,-477.5 1561.5,-507.5 1805.5,-507.5 1805.5,-477.5 1561.5,-477.5"/>
<text text-anchor="start" x="1568.5" y="-488.9" font-family="Arial" font-size="14.00" fill="#000000">district_location </text>
<text text-anchor="start" x="1668.845" y="-488.9" font-family="Arial" font-size="14.00" fill="#666666">[varchar(32)]</text>
<polygon fill="none" stroke="#000000" points="1561.5,-447.5 1561.5,-477.5 1805.5,-477.5 1805.5,-447.5 1561.5,-447.5"/>
<text text-anchor="start" x="1568.5" y="-458.9" font-family="Arial" font-size="14.00" fill="#000000">mpu_phase </text>
<text text-anchor="start" x="1645.5294" y="-458.9" font-family="Arial" font-size="14.00" fill="#666666">[varchar(32)]</text>
<polygon fill="none" stroke="#000000" points="1561.5,-417.5 1561.5,-447.5 1805.5,-447.5 1805.5,-417.5 1561.5,-417.5"/>
<text text-anchor="start" x="1568.5" y="-428.9" font-family="Arial" font-size="14.00" fill="#000000">budget_amount </text>
<text text-anchor="start" x="1669.6584" y="-428.9" font-family="Arial" font-size="14.00" fill="#666666">[double precision]</text>
<polygon fill="none" stroke="#000000" points="1561.5,-387.5 1561.5,-417.5 1805.5,-417.5 1805.5,-387.5 1561.5,-387.5"/>
<text text-anchor="start" x="1568.5" y="-398.9" font-family="Arial" font-size="14.00" fill="#000000">expended_amount </text>
<text text-anchor="start" x="1688.333" y="-398.9" font-family="Arial" font-size="14.00" fill="#666666">[double precision]</text>
<polygon fill="none" stroke="#000000" points="1561.5,-357.5 1561.5,-387.5 1805.5,-387.5 1805.5,-357.5 1561.5,-357.5"/>
<text text-anchor="start" x="1568.5" y="-368.9" font-family="Arial" font-size="14.00" fill="#000000">remaining_budget </text>
<text text-anchor="start" x="1684.4242" y="-368.9" font-family="Arial" font-size="14.00" fill="#666666">[double precision]</text>
<polygon fill="none" stroke="#000000" points="1561.5,-327.5 1561.5,-357.5 1805.5,-357.5 1805.5,-327.5 1561.5,-327.5"/>
<text text-anchor="start" x="1568.5" y="-338.9" font-family="Arial" font-size="14.00" fill="#000000">funding_level </text>
<text text-anchor="start" x="1654.8618" y="-338.9" font-family="Arial" font-size="14.00" fill="#666666">[varchar(16)]</text>
<polygon fill="none" stroke="#000000" points="1561.5,-297.5 1561.5,-327.5 1805.5,-327.5 1805.5,-297.5 1561.5,-297.5"/>
<text text-anchor="start" x="1568.5" y="-308.9" font-family="Arial" font-size="14.00" fill="#000000">end_date </text>
<text text-anchor="start" x="1630.7594" y="-308.9" font-family="Arial" font-size="14.00" fill="#666666">[date]</text>
<polygon fill="none" stroke="#000000" points="1561.5,-267.5 1561.5,-297.5 1805.5,-297.5 1805.5,-267.5 1561.5,-267.5"/>
<text text-anchor="start" x="1568.5" y="-278.9" font-family="Arial" font-size="14.00" fill="#000000">rr_funded </text>
<text text-anchor="start" x="1632.298" y="-278.9" font-family="Arial" font-size="14.00" fill="#666666">[boolean]</text>
<polygon fill="none" stroke="#000000" points="1561.5,-237.5 1561.5,-267.5 1805.5,-267.5 1805.5,-237.5 1561.5,-237.5"/>
<text text-anchor="start" x="1568.3591" y="-248.9" font-family="Arial" font-size="14.00" fill="#000000">monthly_burn_rate </text>
<text text-anchor="start" x="1688.9453" y="-248.9" font-family="Arial" font-size="14.00" fill="#666666">[double precision]</text>
<polygon fill="none" stroke="#000000" points="1561.5,-207.5 1561.5,-237.5 1805.5,-237.5 1805.5,-207.5 1561.5,-207.5"/>
<text text-anchor="start" x="1568.5" y="-218.9" font-family="Arial" font-size="14.00" fill="#000000">accomplishments </text>
<text text-anchor="start" x="1680.5112" y="-218.9" font-family="Arial" font-size="14.00" fill="#666666">[text]</text>
<polygon fill="none" stroke="#000000" points="1561.5,-177.5 1561.5,-207.5 1805.5,-207.5 1805.5,-177.5 1561.5,-177.5"/>
<text text-anchor="start" x="1568.5" y="-188.9" font-family="Arial" font-size="14.00" fill="#000000">project_group </text>
<text text-anchor="start" x="1657.9698" y="-188.9" font-family="Arial" font-size="14.00" fill="#666666">[varchar(50)]</text>
<polygon fill="none" stroke="#000000" points="1561.5,-147.5 1561.5,-177.5 1805.5,-177.5 1805.5,-147.5 1561.5,-147.5"/>
<text text-anchor="start" x="1568.5" y="-158.9" font-family="Arial" font-size="14.00" fill="#000000">project_manager </text>
<text text-anchor="start" x="1677.413" y="-158.9" font-family="Arial" font-size="14.00" fill="#666666">[text]</text>
<polygon fill="none" stroke="#000000" points="1561.5,-117.5 1561.5,-147.5 1805.5,-147.5 1805.5,-117.5 1561.5,-117.5"/>
<text text-anchor="start" x="1568.5" y="-128.9" font-family="Arial" font-size="14.00" fill="#000000">program </text>
<text text-anchor="start" x="1624.5028" y="-128.9" font-family="Arial" font-size="14.00" fill="#666666">[varchar(32)]</text>
<polygon fill="none" stroke="#000000" points="1561.5,-87.5 1561.5,-117.5 1805.5,-117.5 1805.5,-87.5 1561.5,-87.5"/>
<text text-anchor="start" x="1568.5" y="-98.9" font-family="Arial" font-size="14.00" fill="#000000">review_format </text>
<text text-anchor="start" x="1660.2798" y="-98.9" font-family="Arial" font-size="14.00" fill="#666666">[varchar(24)]</text>
<polygon fill="none" stroke="#000000" points="1561.5,-57.5 1561.5,-87.5 1805.5,-87.5 1805.5,-57.5 1561.5,-57.5"/>
<text text-anchor="start" x="1568.5" y="-68.9" font-family="Arial" font-size="14.00" fill="#000000">search_vec </text>
<text text-anchor="start" x="1643.9642" y="-68.9" font-family="Arial" font-size="14.00" fill="#666666">[tsvector]</text>
</g>
<!-- public.project -->
<g id="node6" class="node">
<title>public.project</title>
<polygon fill="#efefef" stroke="transparent" points="1910.5,-402.5 1910.5,-437.5 2127.5,-437.5 2127.5,-402.5 1910.5,-402.5"/>
<polygon fill="none" stroke="#000000" points="1910.5,-402.5 1910.5,-437.5 2127.5,-437.5 2127.5,-402.5 1910.5,-402.5"/>
<text text-anchor="start" x="1917.3649" y="-415.3" font-family="Arial Bold" font-size="18.00" fill="#000000">public.project</text>
<text text-anchor="start" x="2023.3813" y="-415.3" font-family="Arial" font-size="14.00" fill="#000000"> </text>
<text text-anchor="start" x="2027.2719" y="-415.3" font-family="Arial" font-size="14.00" fill="#666666">[BASE TABLE]</text>
<polygon fill="none" stroke="#000000" points="1910.5,-372.5 1910.5,-402.5 2127.5,-402.5 2127.5,-372.5 1910.5,-372.5"/>
<text text-anchor="start" x="1917.5" y="-383.9" font-family="Arial" font-size="14.00" fill="#000000">project </text>
<text text-anchor="start" x="1963.3962" y="-383.9" font-family="Arial" font-size="14.00" fill="#666666">[varchar(3)]</text>
</g>
<!-- public.project_meter -->
<g id="node7" class="node">
<title>public.project_meter</title>
<polygon fill="#efefef" stroke="transparent" points="2231.5,-732.5 2231.5,-767.5 2504.5,-767.5 2504.5,-732.5 2231.5,-732.5"/>
<polygon fill="none" stroke="#000000" points="2231.5,-732.5 2231.5,-767.5 2504.5,-767.5 2504.5,-732.5 2231.5,-732.5"/>
<text text-anchor="start" x="2238.3623" y="-745.3" font-family="Arial Bold" font-size="18.00" fill="#000000">public.project_meter</text>
<text text-anchor="start" x="2400.3839" y="-745.3" font-family="Arial" font-size="14.00" fill="#000000"> </text>
<text text-anchor="start" x="2404.2745" y="-745.3" font-family="Arial" font-size="14.00" fill="#666666">[BASE TABLE]</text>
<polygon fill="none" stroke="#000000" points="2231.5,-702.5 2231.5,-732.5 2504.5,-732.5 2504.5,-702.5 2231.5,-702.5"/>
<text text-anchor="start" x="2238.5" y="-713.9" font-family="Arial" font-size="14.00" fill="#000000">project </text>
<text text-anchor="start" x="2284.3962" y="-713.9" font-family="Arial" font-size="14.00" fill="#666666">[varchar(3)]</text>
<polygon fill="none" stroke="#000000" points="2231.5,-672.5 2231.5,-702.5 2504.5,-702.5 2504.5,-672.5 2231.5,-672.5"/>
<text text-anchor="start" x="2238.5" y="-683.9" font-family="Arial" font-size="14.00" fill="#000000">department </text>
<text text-anchor="start" x="2313.1886" y="-683.9" font-family="Arial" font-size="14.00" fill="#666666">[varchar(20)]</text>
<polygon fill="none" stroke="#000000" points="2231.5,-642.5 2231.5,-672.5 2504.5,-672.5 2504.5,-642.5 2231.5,-642.5"/>
<text text-anchor="start" x="2238.5" y="-653.9" font-family="Arial" font-size="14.00" fill="#000000">meter_location </text>
<text text-anchor="start" x="2334.1844" y="-653.9" font-family="Arial" font-size="14.00" fill="#666666">[varchar(8)]</text>
<polygon fill="none" stroke="#000000" points="2231.5,-612.5 2231.5,-642.5 2504.5,-642.5 2504.5,-612.5 2231.5,-612.5"/>
<text text-anchor="start" x="2238.5" y="-623.9" font-family="Arial" font-size="14.00" fill="#000000">metername </text>
<text text-anchor="start" x="2313.176" y="-623.9" font-family="Arial" font-size="14.00" fill="#666666">[varchar(10)]</text>
<polygon fill="none" stroke="#000000" points="2231.5,-582.5 2231.5,-612.5 2504.5,-612.5 2504.5,-582.5 2231.5,-582.5"/>
<text text-anchor="start" x="2238.5" y="-593.9" font-family="Arial" font-size="14.00" fill="#000000">meter_description </text>
<text text-anchor="start" x="2353.6276" y="-593.9" font-family="Arial" font-size="14.00" fill="#666666">[varchar(128)]</text>
<polygon fill="none" stroke="#000000" points="2231.5,-552.5 2231.5,-582.5 2504.5,-582.5 2504.5,-552.5 2231.5,-552.5"/>
<text text-anchor="start" x="2238.5" y="-563.9" font-family="Arial" font-size="14.00" fill="#000000">meter_reading </text>
<text text-anchor="start" x="2332.6304" y="-563.9" font-family="Arial" font-size="14.00" fill="#666666">[double precision]</text>
<polygon fill="none" stroke="#000000" points="2231.5,-522.5 2231.5,-552.5 2504.5,-552.5 2504.5,-522.5 2231.5,-522.5"/>
<text text-anchor="start" x="2238.5" y="-533.9" font-family="Arial" font-size="14.00" fill="#000000">reading_date </text>
<text text-anchor="start" x="2324.0918" y="-533.9" font-family="Arial" font-size="14.00" fill="#666666">[date]</text>
<polygon fill="none" stroke="#000000" points="2231.5,-492.5 2231.5,-522.5 2504.5,-522.5 2504.5,-492.5 2231.5,-492.5"/>
<text text-anchor="start" x="2238.5" y="-503.9" font-family="Arial" font-size="14.00" fill="#000000">meter_units_sql </text>
<text text-anchor="start" x="2341.1844" y="-503.9" font-family="Arial" font-size="14.00" fill="#666666">[varchar(4)]</text>
<polygon fill="none" stroke="#000000" points="2231.5,-462.5 2231.5,-492.5 2504.5,-492.5 2504.5,-462.5 2231.5,-462.5"/>
<text text-anchor="start" x="2238.5" y="-473.9" font-family="Arial" font-size="14.00" fill="#000000">meter_units_from_project </text>
<text text-anchor="start" x="2401.0778" y="-473.9" font-family="Arial" font-size="14.00" fill="#666666">[varchar(22)]</text>
<polygon fill="none" stroke="#000000" points="2231.5,-432.5 2231.5,-462.5 2504.5,-462.5 2504.5,-432.5 2231.5,-432.5"/>
<text text-anchor="start" x="2238.5" y="-443.9" font-family="Arial" font-size="14.00" fill="#000000">meter_units </text>
<text text-anchor="start" x="2315.5126" y="-443.9" font-family="Arial" font-size="14.00" fill="#666666">[varchar(22)]</text>
<polygon fill="none" stroke="#000000" points="2231.5,-402.5 2231.5,-432.5 2504.5,-432.5 2504.5,-402.5 2231.5,-402.5"/>
<text text-anchor="start" x="2238.5" y="-413.9" font-family="Arial" font-size="14.00" fill="#000000">goal </text>
<text text-anchor="start" x="2268.845" y="-413.9" font-family="Arial" font-size="14.00" fill="#666666">[integer]</text>
<polygon fill="none" stroke="#000000" points="2231.5,-372.5 2231.5,-402.5 2504.5,-402.5 2504.5,-372.5 2231.5,-372.5"/>
<text text-anchor="start" x="2238.5" y="-383.9" font-family="Arial" font-size="14.00" fill="#000000">completion_percent </text>
<text text-anchor="start" x="2364.5322" y="-383.9" font-family="Arial" font-size="14.00" fill="#666666">[varchar(8)]</text>
<polygon fill="none" stroke="#000000" points="2231.5,-342.5 2231.5,-372.5 2504.5,-372.5 2504.5,-342.5 2231.5,-342.5"/>
<text text-anchor="start" x="2238.5" y="-353.9" font-family="Arial" font-size="14.00" fill="#000000">goal_group </text>
<text text-anchor="start" x="2312.4186" y="-353.9" font-family="Arial" font-size="14.00" fill="#666666">[varchar(32)]</text>
<polygon fill="none" stroke="#000000" points="2231.5,-312.5 2231.5,-342.5 2504.5,-342.5 2504.5,-312.5 2231.5,-312.5"/>
<text text-anchor="start" x="2238.5" y="-323.9" font-family="Arial" font-size="14.00" fill="#000000">workorder_num </text>
<text text-anchor="start" x="2339.6178" y="-323.9" font-family="Arial" font-size="14.00" fill="#666666">[integer]</text>
<polygon fill="none" stroke="#000000" points="2231.5,-282.5 2231.5,-312.5 2504.5,-312.5 2504.5,-282.5 2231.5,-282.5"/>
<text text-anchor="start" x="2238.5" y="-293.9" font-family="Arial" font-size="14.00" fill="#000000">description </text>
<text text-anchor="start" x="2310.068" y="-293.9" font-family="Arial" font-size="14.00" fill="#666666">[varchar(128)]</text>
<polygon fill="none" stroke="#000000" points="2231.5,-252.5 2231.5,-282.5 2504.5,-282.5 2504.5,-252.5 2231.5,-252.5"/>
<text text-anchor="start" x="2238.5" y="-263.9" font-family="Arial" font-size="14.00" fill="#000000">current_status </text>
<text text-anchor="start" x="2331.0792" y="-263.9" font-family="Arial" font-size="14.00" fill="#666666">[varchar(20)]</text>
<polygon fill="none" stroke="#000000" points="2231.5,-222.5 2231.5,-252.5 2504.5,-252.5 2504.5,-222.5 2231.5,-222.5"/>
<text text-anchor="start" x="2238.5" y="-233.9" font-family="Arial" font-size="14.00" fill="#000000">reported_date </text>
<text text-anchor="start" x="2329.5364" y="-233.9" font-family="Arial" font-size="14.00" fill="#666666">[date]</text>
<polygon fill="none" stroke="#000000" points="2231.5,-192.5 2231.5,-222.5 2504.5,-222.5 2504.5,-192.5 2231.5,-192.5"/>
<text text-anchor="start" x="2238.5" y="-203.9" font-family="Arial" font-size="14.00" fill="#000000">type </text>
<text text-anchor="start" x="2268.8464" y="-203.9" font-family="Arial" font-size="14.00" fill="#666666">[text]</text>
<polygon fill="none" stroke="#000000" points="2231.5,-162.5 2231.5,-192.5 2504.5,-192.5 2504.5,-162.5 2231.5,-162.5"/>
<text text-anchor="start" x="2238.5" y="-173.9" font-family="Arial" font-size="14.00" fill="#000000">tpid </text>
<text text-anchor="start" x="2264.953" y="-173.9" font-family="Arial" font-size="14.00" fill="#666666">[integer]</text>
<polygon fill="none" stroke="#000000" points="2231.5,-132.5 2231.5,-162.5 2504.5,-162.5 2504.5,-132.5 2231.5,-132.5"/>
<text text-anchor="start" x="2238.5" y="-143.9" font-family="Arial" font-size="14.00" fill="#000000">ps_project </text>
<text text-anchor="start" x="2306.9614" y="-143.9" font-family="Arial" font-size="14.00" fill="#666666">[varchar(20)]</text>
<polygon fill="none" stroke="#000000" points="2231.5,-102.5 2231.5,-132.5 2504.5,-132.5 2504.5,-102.5 2231.5,-102.5"/>
<text text-anchor="start" x="2238.5" y="-113.9" font-family="Arial" font-size="14.00" fill="#000000">ps_project_description </text>
<text text-anchor="start" x="2382.4214" y="-113.9" font-family="Arial" font-size="14.00" fill="#666666">[text]</text>
<polygon fill="none" stroke="#000000" points="2231.5,-72.5 2231.5,-102.5 2504.5,-102.5 2504.5,-72.5 2231.5,-72.5"/>
<text text-anchor="start" x="2238.5" y="-83.9" font-family="Arial" font-size="14.00" fill="#000000">ps_activity </text>
<text text-anchor="start" x="2307.7328" y="-83.9" font-family="Arial" font-size="14.00" fill="#666666">[varchar(20)]</text>
<polygon fill="none" stroke="#000000" points="2231.5,-42.5 2231.5,-72.5 2504.5,-72.5 2504.5,-42.5 2231.5,-42.5"/>
<text text-anchor="start" x="2238.5" y="-53.9" font-family="Arial" font-size="14.00" fill="#000000">ps_activity_description </text>
<text text-anchor="start" x="2383.1928" y="-53.9" font-family="Arial" font-size="14.00" fill="#666666">[text]</text>
</g>
<!-- public.work_order -->
<g id="node8" class="node">
<title>public.work_order</title>
<polygon fill="#efefef" stroke="transparent" points="2608.5,-597.5 2608.5,-632.5 2861.5,-632.5 2861.5,-597.5 2608.5,-597.5"/>
<polygon fill="none" stroke="#000000" points="2608.5,-597.5 2608.5,-632.5 2861.5,-632.5 2861.5,-597.5 2608.5,-597.5"/>
<text text-anchor="start" x="2615.3676" y="-610.3" font-family="Arial Bold" font-size="18.00" fill="#000000">public.work_order</text>
<text text-anchor="start" x="2757.3786" y="-610.3" font-family="Arial" font-size="14.00" fill="#000000"> </text>
<text text-anchor="start" x="2761.2692" y="-610.3" font-family="Arial" font-size="14.00" fill="#666666">[BASE TABLE]</text>
<polygon fill="none" stroke="#000000" points="2608.5,-567.5 2608.5,-597.5 2861.5,-597.5 2861.5,-567.5 2608.5,-567.5"/>
<text text-anchor="start" x="2615.5" y="-578.9" font-family="Arial" font-size="14.00" fill="#000000">num </text>
<text text-anchor="start" x="2646.6164" y="-578.9" font-family="Arial" font-size="14.00" fill="#666666">[integer]</text>
<polygon fill="none" stroke="#000000" points="2608.5,-537.5 2608.5,-567.5 2861.5,-567.5 2861.5,-537.5 2608.5,-537.5"/>
<text text-anchor="start" x="2615.5" y="-548.9" font-family="Arial" font-size="14.00" fill="#000000">report_date </text>
<text text-anchor="start" x="2690.9712" y="-548.9" font-family="Arial" font-size="14.00" fill="#666666">[date]</text>
<polygon fill="none" stroke="#000000" points="2608.5,-507.5 2608.5,-537.5 2861.5,-537.5 2861.5,-507.5 2608.5,-507.5"/>
<text text-anchor="start" x="2615.5" y="-518.9" font-family="Arial" font-size="14.00" fill="#000000">alias </text>
<text text-anchor="start" x="2648.169" y="-518.9" font-family="Arial" font-size="14.00" fill="#666666">[varchar(24)]</text>
<polygon fill="none" stroke="#000000" points="2608.5,-477.5 2608.5,-507.5 2861.5,-507.5 2861.5,-477.5 2608.5,-477.5"/>
<text text-anchor="start" x="2615.5" y="-488.9" font-family="Arial" font-size="14.00" fill="#000000">location </text>
<text text-anchor="start" x="2667.6248" y="-488.9" font-family="Arial" font-size="14.00" fill="#666666">[varchar(24)]</text>
<polygon fill="none" stroke="#000000" points="2608.5,-447.5 2608.5,-477.5 2861.5,-477.5 2861.5,-447.5 2608.5,-447.5"/>
<text text-anchor="start" x="2615.5" y="-458.9" font-family="Arial" font-size="14.00" fill="#000000">work_type </text>
<text text-anchor="start" x="2683.1788" y="-458.9" font-family="Arial" font-size="14.00" fill="#666666">[varchar(8)]</text>
<polygon fill="none" stroke="#000000" points="2608.5,-417.5 2608.5,-447.5 2861.5,-447.5 2861.5,-417.5 2608.5,-417.5"/>
<text text-anchor="start" x="2615.5" y="-428.9" font-family="Arial" font-size="14.00" fill="#000000">description </text>
<text text-anchor="start" x="2687.068" y="-428.9" font-family="Arial" font-size="14.00" fill="#666666">[text]</text>
<polygon fill="none" stroke="#000000" points="2608.5,-387.5 2608.5,-417.5 2861.5,-417.5 2861.5,-387.5 2608.5,-387.5"/>
<text text-anchor="start" x="2615.5" y="-398.9" font-family="Arial" font-size="14.00" fill="#000000">asset_type </text>
<text text-anchor="start" x="2687.0848" y="-398.9" font-family="Arial" font-size="14.00" fill="#666666">[varchar(32)]</text>
<polygon fill="none" stroke="#000000" points="2608.5,-357.5 2608.5,-387.5 2861.5,-387.5 2861.5,-357.5 2608.5,-357.5"/>
<text text-anchor="start" x="2615.5" y="-368.9" font-family="Arial" font-size="14.00" fill="#000000">bartdept </text>
<text text-anchor="start" x="2670.7454" y="-368.9" font-family="Arial" font-size="14.00" fill="#666666">[varchar(32)]</text>
<polygon fill="none" stroke="#000000" points="2608.5,-327.5 2608.5,-357.5 2861.5,-357.5 2861.5,-327.5 2608.5,-327.5"/>
<text text-anchor="start" x="2615.5" y="-338.9" font-family="Arial" font-size="14.00" fill="#000000">status </text>
<text text-anchor="start" x="2656.737" y="-338.9" font-family="Arial" font-size="14.00" fill="#666666">[varchar(16)]</text>
<polygon fill="none" stroke="#000000" points="2608.5,-297.5 2608.5,-327.5 2861.5,-327.5 2861.5,-297.5 2608.5,-297.5"/>
<text text-anchor="start" x="2615.5" y="-308.9" font-family="Arial" font-size="14.00" fill="#000000">start </text>
<text text-anchor="start" x="2646.615" y="-308.9" font-family="Arial" font-size="14.00" fill="#666666">[date]</text>
<polygon fill="none" stroke="#000000" points="2608.5,-267.5 2608.5,-297.5 2861.5,-297.5 2861.5,-267.5 2608.5,-267.5"/>
<text text-anchor="start" x="2615.5" y="-278.9" font-family="Arial" font-size="14.00" fill="#000000">finish </text>
<text text-anchor="start" x="2652.0596" y="-278.9" font-family="Arial" font-size="14.00" fill="#666666">[date]</text>
<polygon fill="none" stroke="#000000" points="2608.5,-237.5 2608.5,-267.5 2861.5,-267.5 2861.5,-237.5 2608.5,-237.5"/>
<text text-anchor="start" x="2615.5" y="-248.9" font-family="Arial" font-size="14.00" fill="#000000">labor_hours </text>
<text text-anchor="start" x="2693.2966" y="-248.9" font-family="Arial" font-size="14.00" fill="#666666">[double precision]</text>
<polygon fill="none" stroke="#000000" points="2608.5,-207.5 2608.5,-237.5 2861.5,-237.5 2861.5,-207.5 2608.5,-207.5"/>
<text text-anchor="start" x="2615.5" y="-218.9" font-family="Arial" font-size="14.00" fill="#000000">material_cost </text>
<text text-anchor="start" x="2702.6192" y="-218.9" font-family="Arial" font-size="14.00" fill="#666666">[double precision]</text>
<polygon fill="none" stroke="#000000" points="2608.5,-177.5 2608.5,-207.5 2861.5,-207.5 2861.5,-177.5 2608.5,-177.5"/>
<text text-anchor="start" x="2615.5" y="-188.9" font-family="Arial" font-size="14.00" fill="#000000">search_vec </text>
<text text-anchor="start" x="2690.9642" y="-188.9" font-family="Arial" font-size="14.00" fill="#666666">[tsvector]</text>
</g>
<!-- public.table_counts -->
<g id="node9" class="node">
<title>public.table_counts</title>
<polygon fill="#efefef" stroke="transparent" points="2965.5,-417.5 2965.5,-452.5 3180.5,-452.5 3180.5,-417.5 2965.5,-417.5"/>
<polygon fill="none" stroke="#000000" points="2965.5,-417.5 2965.5,-452.5 3180.5,-452.5 3180.5,-417.5 2965.5,-417.5"/>
<text text-anchor="start" x="2972.2493" y="-430.3" font-family="Arial Bold" font-size="18.00" fill="#000000">public.table_counts</text>
<text text-anchor="start" x="3126.3005" y="-430.3" font-family="Arial" font-size="14.00" fill="#000000"> </text>
<text text-anchor="start" x="3130.1911" y="-430.3" font-family="Arial" font-size="14.00" fill="#666666">[VIEW]</text>
<polygon fill="none" stroke="#000000" points="2965.5,-387.5 2965.5,-417.5 3180.5,-417.5 3180.5,-387.5 2965.5,-387.5"/>
<text text-anchor="start" x="2972.5" y="-398.9" font-family="Arial" font-size="14.00" fill="#000000">name </text>
<text text-anchor="start" x="3011.399" y="-398.9" font-family="Arial" font-size="14.00" fill="#666666">[text]</text>
<polygon fill="none" stroke="#000000" points="2965.5,-357.5 2965.5,-387.5 3180.5,-387.5 3180.5,-357.5 2965.5,-357.5"/>
<text text-anchor="start" x="2972.5" y="-368.9" font-family="Arial" font-size="14.00" fill="#000000">counts </text>
<text text-anchor="start" x="3017.629" y="-368.9" font-family="Arial" font-size="14.00" fill="#666666">[bigint]</text>
</g>
<!-- public.users -->
<g id="node10" class="node">
<title>public.users</title>
<polygon fill="#efefef" stroke="transparent" points="3284.5,-462.5 3284.5,-497.5 3491.5,-497.5 3491.5,-462.5 3284.5,-462.5"/>
<polygon fill="none" stroke="#000000" points="3284.5,-462.5 3284.5,-497.5 3491.5,-497.5 3491.5,-462.5 3284.5,-462.5"/>
<text text-anchor="start" x="3291.3662" y="-475.3" font-family="Arial Bold" font-size="18.00" fill="#000000">public.users</text>
<text text-anchor="start" x="3387.38" y="-475.3" font-family="Arial" font-size="14.00" fill="#000000"> </text>
<text text-anchor="start" x="3391.2706" y="-475.3" font-family="Arial" font-size="14.00" fill="#666666">[BASE TABLE]</text>
<polygon fill="none" stroke="#000000" points="3284.5,-432.5 3284.5,-462.5 3491.5,-462.5 3491.5,-432.5 3284.5,-432.5"/>
<text text-anchor="start" x="3291.5" y="-443.9" font-family="Arial" font-size="14.00" fill="#000000">id </text>
<text text-anchor="start" x="3306.2798" y="-443.9" font-family="Arial" font-size="14.00" fill="#666666">[integer]</text>
<polygon fill="none" stroke="#000000" points="3284.5,-402.5 3284.5,-432.5 3491.5,-432.5 3491.5,-402.5 3284.5,-402.5"/>
<text text-anchor="start" x="3291.5" y="-413.9" font-family="Arial" font-size="14.00" fill="#000000">username </text>
<text text-anchor="start" x="3357.6248" y="-413.9" font-family="Arial" font-size="14.00" fill="#666666">[varchar(128)]</text>
<polygon fill="none" stroke="#000000" points="3284.5,-372.5 3284.5,-402.5 3491.5,-402.5 3491.5,-372.5 3284.5,-372.5"/>
<text text-anchor="start" x="3291.5" y="-383.9" font-family="Arial" font-size="14.00" fill="#000000">email </text>
<text text-anchor="start" x="3328.8296" y="-383.9" font-family="Arial" font-size="14.00" fill="#666666">[varchar(128)]</text>
<polygon fill="none" stroke="#000000" points="3284.5,-342.5 3284.5,-372.5 3491.5,-372.5 3491.5,-342.5 3284.5,-342.5"/>
<text text-anchor="start" x="3291.5" y="-353.9" font-family="Arial" font-size="14.00" fill="#000000">is_admin </text>
<text text-anchor="start" x="3351.3948" y="-353.9" font-family="Arial" font-size="14.00" fill="#666666">[boolean]</text>
<polygon fill="none" stroke="#000000" points="3284.5,-312.5 3284.5,-342.5 3491.5,-342.5 3491.5,-312.5 3284.5,-312.5"/>
<text text-anchor="start" x="3291.5" y="-323.9" font-family="Arial" font-size="14.00" fill="#000000">hash </text>
<text text-anchor="start" x="3325.7384" y="-323.9" font-family="Arial" font-size="14.00" fill="#666666">[varchar(128)]</text>
</g>
</g>
</svg>
