<?xml version="1.0" encoding="UTF-8" standalone="no"?>
<!DOCTYPE svg PUBLIC "-//W3C//DTD SVG 1.1//EN"
 "http://www.w3.org/Graphics/SVG/1.1/DTD/svg11.dtd">
<!-- Generated by graphviz version 2.40.1 (20161225.0304)
 -->
<!-- Title: dashboard.db Pages: 1 -->
<svg width="2488pt" height="759pt"
 viewBox="0.00 0.00 2488.00 759.00" xmlns="http://www.w3.org/2000/svg" xmlns:xlink="http://www.w3.org/1999/xlink">
<g id="graph0" class="graph" transform="scale(1 1) rotate(0) translate(4 755)">
<title>dashboard.db</title>
<polygon fill="#ffffff" stroke="transparent" points="-4,4 -4,-755 2484,-755 2484,4 -4,4"/>
<!-- alembic_version -->
<g id="node1" class="node">
<title>alembic_version</title>
<polygon fill="#efefef" stroke="transparent" points="43.5,-372.5 43.5,-407.5 242.5,-407.5 242.5,-372.5 43.5,-372.5"/>
<polygon fill="none" stroke="#000000" points="43.5,-372.5 43.5,-407.5 242.5,-407.5 242.5,-372.5 43.5,-372.5"/>
<text text-anchor="start" x="56.9864" y="-385.3" font-family="Arial Bold" font-size="18.00" fill="#000000">alembic_version</text>
<text text-anchor="start" x="186.9968" y="-385.3" font-family="Arial" font-size="14.00" fill="#000000"> </text>
<text text-anchor="start" x="190.8874" y="-385.3" font-family="Arial" font-size="14.00" fill="#666666">[table]</text>
<polygon fill="none" stroke="#000000" points="43.5,-342.5 43.5,-372.5 242.5,-372.5 242.5,-342.5 43.5,-342.5"/>
<text text-anchor="start" x="50.4411" y="-353.9" font-family="Arial" font-size="14.00" fill="#000000">version_num </text>
<text text-anchor="start" x="134.4551" y="-353.9" font-family="Arial" font-size="14.00" fill="#666666">[VARCHAR(32)]</text>
</g>
<!-- asset -->
<g id="node2" class="node">
<title>asset</title>
<polygon fill="#efefef" stroke="transparent" points="346.5,-417.5 346.5,-452.5 540.5,-452.5 540.5,-417.5 346.5,-417.5"/>
<polygon fill="none" stroke="#000000" points="346.5,-417.5 346.5,-452.5 540.5,-452.5 540.5,-417.5 346.5,-417.5"/>
<text text-anchor="start" x="400.9843" y="-430.3" font-family="Arial Bold" font-size="18.00" fill="#000000">asset</text>
<text text-anchor="start" x="443.9989" y="-430.3" font-family="Arial" font-size="14.00" fill="#000000"> </text>
<text text-anchor="start" x="447.8895" y="-430.3" font-family="Arial" font-size="14.00" fill="#666666">[table]</text>
<polygon fill="none" stroke="#000000" points="346.5,-387.5 346.5,-417.5 540.5,-417.5 540.5,-387.5 346.5,-387.5"/>
<text text-anchor="start" x="353.5" y="-398.9" font-family="Arial" font-size="14.00" fill="#000000">num </text>
<text text-anchor="start" x="384.6164" y="-398.9" font-family="Arial" font-size="14.00" fill="#666666">[INTEGER]</text>
<polygon fill="none" stroke="#000000" points="346.5,-357.5 346.5,-387.5 540.5,-387.5 540.5,-357.5 346.5,-357.5"/>
<text text-anchor="start" x="353.5" y="-368.9" font-family="Arial" font-size="14.00" fill="#000000">bartdept </text>
<text text-anchor="start" x="408.7454" y="-368.9" font-family="Arial" font-size="14.00" fill="#666666">[VARCHAR(8)]</text>
<polygon fill="none" stroke="#000000" points="346.5,-327.5 346.5,-357.5 540.5,-357.5 540.5,-327.5 346.5,-327.5"/>
<text text-anchor="start" x="353.2728" y="-338.9" font-family="Arial" font-size="14.00" fill="#000000">description </text>
<text text-anchor="start" x="424.8408" y="-338.9" font-family="Arial" font-size="14.00" fill="#666666">[VARCHAR(128)]</text>
<polygon fill="none" stroke="#000000" points="346.5,-297.5 346.5,-327.5 540.5,-327.5 540.5,-297.5 346.5,-297.5"/>
<text text-anchor="start" x="353.5" y="-308.9" font-family="Arial" font-size="14.00" fill="#000000">status </text>
<text text-anchor="start" x="394.737" y="-308.9" font-family="Arial" font-size="14.00" fill="#666666">[VARCHAR(16)]</text>
</g>
<!-- meter_reading -->
<g id="node3" class="node">
<title>meter_reading</title>
<polygon fill="#efefef" stroke="transparent" points="645.5,-462.5 645.5,-497.5 852.5,-497.5 852.5,-462.5 645.5,-462.5"/>
<polygon fill="none" stroke="#000000" points="645.5,-462.5 645.5,-497.5 852.5,-497.5 852.5,-462.5 645.5,-462.5"/>
<text text-anchor="start" x="669.9803" y="-475.3" font-family="Arial Bold" font-size="18.00" fill="#000000">meter_reading</text>
<text text-anchor="start" x="786.0029" y="-475.3" font-family="Arial" font-size="14.00" fill="#000000"> </text>
<text text-anchor="start" x="789.8935" y="-475.3" font-family="Arial" font-size="14.00" fill="#666666">[table]</text>
<polygon fill="none" stroke="#000000" points="645.5,-432.5 645.5,-462.5 852.5,-462.5 852.5,-432.5 645.5,-432.5"/>
<text text-anchor="start" x="652.5" y="-443.9" font-family="Arial" font-size="14.00" fill="#000000">assetnum </text>
<text text-anchor="start" x="717.0722" y="-443.9" font-family="Arial" font-size="14.00" fill="#666666">[INTEGER]</text>
<polygon fill="none" stroke="#000000" points="645.5,-402.5 645.5,-432.5 852.5,-432.5 852.5,-402.5 645.5,-402.5"/>
<text text-anchor="start" x="652.5" y="-413.9" font-family="Arial" font-size="14.00" fill="#000000">metername </text>
<text text-anchor="start" x="727.176" y="-413.9" font-family="Arial" font-size="14.00" fill="#666666">[VARCHAR(16)]</text>
<polygon fill="none" stroke="#000000" points="645.5,-372.5 645.5,-402.5 852.5,-402.5 852.5,-372.5 645.5,-372.5"/>
<text text-anchor="start" x="652.1585" y="-383.9" font-family="Arial" font-size="14.00" fill="#000000">readingsource </text>
<text text-anchor="start" x="744.7377" y="-383.9" font-family="Arial" font-size="14.00" fill="#666666">[VARCHAR(32)]</text>
<polygon fill="none" stroke="#000000" points="645.5,-342.5 645.5,-372.5 852.5,-372.5 852.5,-342.5 645.5,-342.5"/>
<text text-anchor="start" x="652.5" y="-353.9" font-family="Arial" font-size="14.00" fill="#000000">reading </text>
<text text-anchor="start" x="703.0708" y="-353.9" font-family="Arial" font-size="14.00" fill="#666666">[INTEGER]</text>
<polygon fill="none" stroke="#000000" points="645.5,-312.5 645.5,-342.5 852.5,-342.5 852.5,-312.5 645.5,-312.5"/>
<text text-anchor="start" x="652.5" y="-323.9" font-family="Arial" font-size="14.00" fill="#000000">delta </text>
<text text-anchor="start" x="686.7356" y="-323.9" font-family="Arial" font-size="14.00" fill="#666666">[INTEGER]</text>
<polygon fill="none" stroke="#000000" points="645.5,-282.5 645.5,-312.5 852.5,-312.5 852.5,-282.5 645.5,-282.5"/>
<text text-anchor="start" x="652.5" y="-293.9" font-family="Arial" font-size="14.00" fill="#000000">readingdate </text>
<text text-anchor="start" x="730.3092" y="-293.9" font-family="Arial" font-size="14.00" fill="#666666">[DATE]</text>
<polygon fill="none" stroke="#000000" points="645.5,-252.5 645.5,-282.5 852.5,-282.5 852.5,-252.5 645.5,-252.5"/>
<text text-anchor="start" x="652.5" y="-263.9" font-family="Arial" font-size="14.00" fill="#000000">enterdate </text>
<text text-anchor="start" x="715.528" y="-263.9" font-family="Arial" font-size="14.00" fill="#666666">[DATE]</text>
</g>
<!-- meter_readings -->
<g id="node4" class="node">
<title>meter_readings</title>
<polygon fill="#efefef" stroke="transparent" points="956.5,-672.5 956.5,-707.5 1223.5,-707.5 1223.5,-672.5 956.5,-672.5"/>
<polygon fill="none" stroke="#000000" points="956.5,-672.5 956.5,-707.5 1223.5,-707.5 1223.5,-672.5 956.5,-672.5"/>
<text text-anchor="start" x="1006.4803" y="-685.3" font-family="Arial Bold" font-size="18.00" fill="#000000">meter_readings</text>
<text text-anchor="start" x="1131.5029" y="-685.3" font-family="Arial" font-size="14.00" fill="#000000"> </text>
<text text-anchor="start" x="1135.3935" y="-685.3" font-family="Arial" font-size="14.00" fill="#666666">[table]</text>
<polygon fill="none" stroke="#000000" points="956.5,-642.5 956.5,-672.5 1223.5,-672.5 1223.5,-642.5 956.5,-642.5"/>
<text text-anchor="start" x="963.5" y="-653.9" font-family="Arial" font-size="14.00" fill="#000000">project </text>
<text text-anchor="start" x="1009.3962" y="-653.9" font-family="Arial" font-size="14.00" fill="#666666">[VARCHAR(14)]</text>
<polygon fill="none" stroke="#000000" points="956.5,-612.5 956.5,-642.5 1223.5,-642.5 1223.5,-612.5 956.5,-612.5"/>
<text text-anchor="start" x="963.5" y="-623.9" font-family="Arial" font-size="14.00" fill="#000000">department </text>
<text text-anchor="start" x="1038.1886" y="-623.9" font-family="Arial" font-size="14.00" fill="#666666">[VARCHAR(32)]</text>
<polygon fill="none" stroke="#000000" points="956.5,-582.5 956.5,-612.5 1223.5,-612.5 1223.5,-582.5 956.5,-582.5"/>
<text text-anchor="start" x="963.5" y="-593.9" font-family="Arial" font-size="14.00" fill="#000000">meter_name </text>
<text text-anchor="start" x="1045.9586" y="-593.9" font-family="Arial" font-size="14.00" fill="#666666">[VARCHAR(32)]</text>
<polygon fill="none" stroke="#000000" points="956.5,-552.5 956.5,-582.5 1223.5,-582.5 1223.5,-552.5 956.5,-552.5"/>
<text text-anchor="start" x="963.5" y="-563.9" font-family="Arial" font-size="14.00" fill="#000000">meter_description </text>
<text text-anchor="start" x="1078.6276" y="-563.9" font-family="Arial" font-size="14.00" fill="#666666">[VARCHAR(256)]</text>
<polygon fill="none" stroke="#000000" points="956.5,-522.5 956.5,-552.5 1223.5,-552.5 1223.5,-522.5 956.5,-522.5"/>
<text text-anchor="start" x="963.5" y="-533.9" font-family="Arial" font-size="14.00" fill="#000000">meter_reading </text>
<text text-anchor="start" x="1057.6304" y="-533.9" font-family="Arial" font-size="14.00" fill="#666666">[INTEGER]</text>
<polygon fill="none" stroke="#000000" points="956.5,-492.5 956.5,-522.5 1223.5,-522.5 1223.5,-492.5 956.5,-492.5"/>
<text text-anchor="start" x="963.5" y="-503.9" font-family="Arial" font-size="14.00" fill="#000000">reading_date </text>
<text text-anchor="start" x="1049.0918" y="-503.9" font-family="Arial" font-size="14.00" fill="#666666">[VARCHAR(32)]</text>
<polygon fill="none" stroke="#000000" points="956.5,-462.5 956.5,-492.5 1223.5,-492.5 1223.5,-462.5 956.5,-462.5"/>
<text text-anchor="start" x="963.5" y="-473.9" font-family="Arial" font-size="14.00" fill="#000000">meter_unit </text>
<text text-anchor="start" x="1033.5126" y="-473.9" font-family="Arial" font-size="14.00" fill="#666666">[VARCHAR(64)]</text>
<polygon fill="none" stroke="#000000" points="956.5,-432.5 956.5,-462.5 1223.5,-462.5 1223.5,-432.5 956.5,-432.5"/>
<text text-anchor="start" x="963.5" y="-443.9" font-family="Arial" font-size="14.00" fill="#000000">goal </text>
<text text-anchor="start" x="993.845" y="-443.9" font-family="Arial" font-size="14.00" fill="#666666">[INTEGER]</text>
<polygon fill="none" stroke="#000000" points="956.5,-402.5 956.5,-432.5 1223.5,-432.5 1223.5,-402.5 956.5,-402.5"/>
<text text-anchor="start" x="963.5" y="-413.9" font-family="Arial" font-size="14.00" fill="#000000">completion </text>
<text text-anchor="start" x="1035.068" y="-413.9" font-family="Arial" font-size="14.00" fill="#666666">[FLOAT]</text>
<polygon fill="none" stroke="#000000" points="956.5,-372.5 956.5,-402.5 1223.5,-402.5 1223.5,-372.5 956.5,-372.5"/>
<text text-anchor="start" x="963.5" y="-383.9" font-family="Arial" font-size="14.00" fill="#000000">goal_group </text>
<text text-anchor="start" x="1037.4186" y="-383.9" font-family="Arial" font-size="14.00" fill="#666666">[VARCHAR(64)]</text>
<polygon fill="none" stroke="#000000" points="956.5,-342.5 956.5,-372.5 1223.5,-372.5 1223.5,-342.5 956.5,-342.5"/>
<text text-anchor="start" x="963.5" y="-353.9" font-family="Arial" font-size="14.00" fill="#000000">work_order_num </text>
<text text-anchor="start" x="1072.4004" y="-353.9" font-family="Arial" font-size="14.00" fill="#666666">[INTEGER]</text>
<polygon fill="none" stroke="#000000" points="956.5,-312.5 956.5,-342.5 1223.5,-342.5 1223.5,-312.5 956.5,-312.5"/>
<text text-anchor="start" x="963.5" y="-323.9" font-family="Arial" font-size="14.00" fill="#000000">description </text>
<text text-anchor="start" x="1035.068" y="-323.9" font-family="Arial" font-size="14.00" fill="#666666">[VARCHAR(256)]</text>
<polygon fill="none" stroke="#000000" points="956.5,-282.5 956.5,-312.5 1223.5,-312.5 1223.5,-282.5 956.5,-282.5"/>
<text text-anchor="start" x="963.5" y="-293.9" font-family="Arial" font-size="14.00" fill="#000000">cur_status </text>
<text text-anchor="start" x="1031.9628" y="-293.9" font-family="Arial" font-size="14.00" fill="#666666">[VARCHAR(32)]</text>
<polygon fill="none" stroke="#000000" points="956.5,-252.5 956.5,-282.5 1223.5,-282.5 1223.5,-252.5 956.5,-252.5"/>
<text text-anchor="start" x="963.5" y="-263.9" font-family="Arial" font-size="14.00" fill="#000000">reported_date </text>
<text text-anchor="start" x="1054.5364" y="-263.9" font-family="Arial" font-size="14.00" fill="#666666">[VARCHAR(32)]</text>
<polygon fill="none" stroke="#000000" points="956.5,-222.5 956.5,-252.5 1223.5,-252.5 1223.5,-222.5 956.5,-222.5"/>
<text text-anchor="start" x="963.5" y="-233.9" font-family="Arial" font-size="14.00" fill="#000000">location </text>
<text text-anchor="start" x="1015.6248" y="-233.9" font-family="Arial" font-size="14.00" fill="#666666">[VARCHAR(16)]</text>
<polygon fill="none" stroke="#000000" points="956.5,-192.5 956.5,-222.5 1223.5,-222.5 1223.5,-192.5 956.5,-192.5"/>
<text text-anchor="start" x="963.5" y="-203.9" font-family="Arial" font-size="14.00" fill="#000000">proj_type </text>
<text text-anchor="start" x="1024.9614" y="-203.9" font-family="Arial" font-size="14.00" fill="#666666">[VARCHAR(16)]</text>
<polygon fill="none" stroke="#000000" points="956.5,-162.5 956.5,-192.5 1223.5,-192.5 1223.5,-162.5 956.5,-162.5"/>
<text text-anchor="start" x="963.5" y="-173.9" font-family="Arial" font-size="14.00" fill="#000000">tpid </text>
<text text-anchor="start" x="989.953" y="-173.9" font-family="Arial" font-size="14.00" fill="#666666">[INTEGER]</text>
<polygon fill="none" stroke="#000000" points="956.5,-132.5 956.5,-162.5 1223.5,-162.5 1223.5,-132.5 956.5,-132.5"/>
<text text-anchor="start" x="963.5" y="-143.9" font-family="Arial" font-size="14.00" fill="#000000">ps_project </text>
<text text-anchor="start" x="1031.9614" y="-143.9" font-family="Arial" font-size="14.00" fill="#666666">[VARCHAR(16)]</text>
<polygon fill="none" stroke="#000000" points="956.5,-102.5 956.5,-132.5 1223.5,-132.5 1223.5,-102.5 956.5,-102.5"/>
<text text-anchor="start" x="963.5" y="-113.9" font-family="Arial" font-size="14.00" fill="#000000">ps_proj_description </text>
<text text-anchor="start" x="1088.7482" y="-113.9" font-family="Arial" font-size="14.00" fill="#666666">[VARCHAR(256)]</text>
<polygon fill="none" stroke="#000000" points="956.5,-72.5 956.5,-102.5 1223.5,-102.5 1223.5,-72.5 956.5,-72.5"/>
<text text-anchor="start" x="963.5" y="-83.9" font-family="Arial" font-size="14.00" fill="#000000">ps_activity </text>
<text text-anchor="start" x="1032.7328" y="-83.9" font-family="Arial" font-size="14.00" fill="#666666">[VARCHAR(16)]</text>
<polygon fill="none" stroke="#000000" points="956.5,-42.5 956.5,-72.5 1223.5,-72.5 1223.5,-42.5 956.5,-42.5"/>
<text text-anchor="start" x="963.2104" y="-53.9" font-family="Arial" font-size="14.00" fill="#000000">ps_activity_description </text>
<text text-anchor="start" x="1107.9032" y="-53.9" font-family="Arial" font-size="14.00" fill="#666666">[VARCHAR(256)]</text>
</g>
<!-- mpu -->
<g id="node5" class="node">
<title>mpu</title>
<polygon fill="#efefef" stroke="transparent" points="1327.5,-672.5 1327.5,-707.5 1561.5,-707.5 1561.5,-672.5 1327.5,-672.5"/>
<polygon fill="none" stroke="#000000" points="1327.5,-672.5 1327.5,-707.5 1561.5,-707.5 1561.5,-672.5 1327.5,-672.5"/>
<text text-anchor="start" x="1405.9893" y="-685.3" font-family="Arial Bold" font-size="18.00" fill="#000000">mpu</text>
<text text-anchor="start" x="1440.9939" y="-685.3" font-family="Arial" font-size="14.00" fill="#000000"> </text>
<text text-anchor="start" x="1444.8845" y="-685.3" font-family="Arial" font-size="14.00" fill="#666666">[table]</text>
<polygon fill="none" stroke="#000000" points="1327.5,-642.5 1327.5,-672.5 1561.5,-672.5 1561.5,-642.5 1327.5,-642.5"/>
<text text-anchor="start" x="1334.5" y="-653.9" font-family="Arial" font-size="14.00" fill="#000000">id </text>
<text text-anchor="start" x="1349.2798" y="-653.9" font-family="Arial" font-size="14.00" fill="#666666">[VARCHAR(14)]</text>
<polygon fill="none" stroke="#000000" points="1327.5,-612.5 1327.5,-642.5 1561.5,-642.5 1561.5,-612.5 1327.5,-612.5"/>
<text text-anchor="start" x="1334.5" y="-623.9" font-family="Arial" font-size="14.00" fill="#000000">name </text>
<text text-anchor="start" x="1373.399" y="-623.9" font-family="Arial" font-size="14.00" fill="#666666">[VARCHAR(128)]</text>
<polygon fill="none" stroke="#000000" points="1327.5,-582.5 1327.5,-612.5 1561.5,-612.5 1561.5,-582.5 1327.5,-582.5"/>
<text text-anchor="start" x="1334.5" y="-593.9" font-family="Arial" font-size="14.00" fill="#000000">short_name </text>
<text text-anchor="start" x="1412.298" y="-593.9" font-family="Arial" font-size="14.00" fill="#666666">[VARCHAR(128)]</text>
<polygon fill="none" stroke="#000000" points="1327.5,-552.5 1327.5,-582.5 1561.5,-582.5 1561.5,-552.5 1327.5,-552.5"/>
<text text-anchor="start" x="1334.5" y="-563.9" font-family="Arial" font-size="14.00" fill="#000000">ranking </text>
<text text-anchor="start" x="1384.2882" y="-563.9" font-family="Arial" font-size="14.00" fill="#666666">[INTEGER]</text>
<polygon fill="none" stroke="#000000" points="1327.5,-522.5 1327.5,-552.5 1561.5,-552.5 1561.5,-522.5 1327.5,-522.5"/>
<text text-anchor="start" x="1334.5" y="-533.9" font-family="Arial" font-size="14.00" fill="#000000">description </text>
<text text-anchor="start" x="1406.068" y="-533.9" font-family="Arial" font-size="14.00" fill="#666666">[VARCHAR(512)]</text>
<polygon fill="none" stroke="#000000" points="1327.5,-492.5 1327.5,-522.5 1561.5,-522.5 1561.5,-492.5 1327.5,-492.5"/>
<text text-anchor="start" x="1334.5" y="-503.9" font-family="Arial" font-size="14.00" fill="#000000">location </text>
<text text-anchor="start" x="1386.6248" y="-503.9" font-family="Arial" font-size="14.00" fill="#666666">[VARCHAR(32)]</text>
<polygon fill="none" stroke="#000000" points="1327.5,-462.5 1327.5,-492.5 1561.5,-492.5 1561.5,-462.5 1327.5,-462.5"/>
<text text-anchor="start" x="1334.5" y="-473.9" font-family="Arial" font-size="14.00" fill="#000000">sub_location </text>
<text text-anchor="start" x="1416.9726" y="-473.9" font-family="Arial" font-size="14.00" fill="#666666">[VARCHAR(32)]</text>
<polygon fill="none" stroke="#000000" points="1327.5,-432.5 1327.5,-462.5 1561.5,-462.5 1561.5,-432.5 1327.5,-432.5"/>
<text text-anchor="start" x="1334.5" y="-443.9" font-family="Arial" font-size="14.00" fill="#000000">district_location </text>
<text text-anchor="start" x="1434.845" y="-443.9" font-family="Arial" font-size="14.00" fill="#666666">[VARCHAR(64)]</text>
<polygon fill="none" stroke="#000000" points="1327.5,-402.5 1327.5,-432.5 1561.5,-432.5 1561.5,-402.5 1327.5,-402.5"/>
<text text-anchor="start" x="1334.5" y="-413.9" font-family="Arial" font-size="14.00" fill="#000000">mpu_phase </text>
<text text-anchor="start" x="1411.5294" y="-413.9" font-family="Arial" font-size="14.00" fill="#666666">[VARCHAR(32)]</text>
<polygon fill="none" stroke="#000000" points="1327.5,-372.5 1327.5,-402.5 1561.5,-402.5 1561.5,-372.5 1327.5,-372.5"/>
<text text-anchor="start" x="1334.5" y="-383.9" font-family="Arial" font-size="14.00" fill="#000000">budget_amount </text>
<text text-anchor="start" x="1435.6584" y="-383.9" font-family="Arial" font-size="14.00" fill="#666666">[FLOAT]</text>
<polygon fill="none" stroke="#000000" points="1327.5,-342.5 1327.5,-372.5 1561.5,-372.5 1561.5,-342.5 1327.5,-342.5"/>
<text text-anchor="start" x="1334.5" y="-353.9" font-family="Arial" font-size="14.00" fill="#000000">expended_amount </text>
<text text-anchor="start" x="1454.333" y="-353.9" font-family="Arial" font-size="14.00" fill="#666666">[FLOAT]</text>
<polygon fill="none" stroke="#000000" points="1327.5,-312.5 1327.5,-342.5 1561.5,-342.5 1561.5,-312.5 1327.5,-312.5"/>
<text text-anchor="start" x="1334.5" y="-323.9" font-family="Arial" font-size="14.00" fill="#000000">monthly_burn_rate </text>
<text text-anchor="start" x="1455.0862" y="-323.9" font-family="Arial" font-size="14.00" fill="#666666">[FLOAT]</text>
<polygon fill="none" stroke="#000000" points="1327.5,-282.5 1327.5,-312.5 1561.5,-312.5 1561.5,-282.5 1327.5,-282.5"/>
<text text-anchor="start" x="1334.5" y="-293.9" font-family="Arial" font-size="14.00" fill="#000000">remaining_budget </text>
<text text-anchor="start" x="1450.4242" y="-293.9" font-family="Arial" font-size="14.00" fill="#666666">[FLOAT]</text>
<polygon fill="none" stroke="#000000" points="1327.5,-252.5 1327.5,-282.5 1561.5,-282.5 1561.5,-252.5 1327.5,-252.5"/>
<text text-anchor="start" x="1334.5" y="-263.9" font-family="Arial" font-size="14.00" fill="#000000">funding_level </text>
<text text-anchor="start" x="1420.8618" y="-263.9" font-family="Arial" font-size="14.00" fill="#666666">[VARCHAR(16)]</text>
<polygon fill="none" stroke="#000000" points="1327.5,-222.5 1327.5,-252.5 1561.5,-252.5 1561.5,-222.5 1327.5,-222.5"/>
<text text-anchor="start" x="1334.5" y="-233.9" font-family="Arial" font-size="14.00" fill="#000000">rr_funded </text>
<text text-anchor="start" x="1398.298" y="-233.9" font-family="Arial" font-size="14.00" fill="#666666">[BOOLEAN]</text>
<polygon fill="none" stroke="#000000" points="1327.5,-192.5 1327.5,-222.5 1561.5,-222.5 1561.5,-192.5 1327.5,-192.5"/>
<text text-anchor="start" x="1334.5" y="-203.9" font-family="Arial" font-size="14.00" fill="#000000">project_group </text>
<text text-anchor="start" x="1423.9698" y="-203.9" font-family="Arial" font-size="14.00" fill="#666666">[VARCHAR(64)]</text>
<polygon fill="none" stroke="#000000" points="1327.5,-162.5 1327.5,-192.5 1561.5,-192.5 1561.5,-162.5 1327.5,-162.5"/>
<text text-anchor="start" x="1334.5" y="-173.9" font-family="Arial" font-size="14.00" fill="#000000">project_manager </text>
<text text-anchor="start" x="1443.413" y="-173.9" font-family="Arial" font-size="14.00" fill="#666666">[VARCHAR(32)]</text>
<polygon fill="none" stroke="#000000" points="1327.5,-132.5 1327.5,-162.5 1561.5,-162.5 1561.5,-132.5 1327.5,-132.5"/>
<text text-anchor="start" x="1334.0512" y="-143.9" font-family="Arial" font-size="14.00" fill="#000000">accomplishments </text>
<text text-anchor="start" x="1446.0624" y="-143.9" font-family="Arial" font-size="14.00" fill="#666666">[VARCHAR(128)]</text>
<polygon fill="none" stroke="#000000" points="1327.5,-102.5 1327.5,-132.5 1561.5,-132.5 1561.5,-102.5 1327.5,-102.5"/>
<text text-anchor="start" x="1334.5" y="-113.9" font-family="Arial" font-size="14.00" fill="#000000">program </text>
<text text-anchor="start" x="1390.5028" y="-113.9" font-family="Arial" font-size="14.00" fill="#666666">[VARCHAR(32)]</text>
<polygon fill="none" stroke="#000000" points="1327.5,-72.5 1327.5,-102.5 1561.5,-102.5 1561.5,-72.5 1327.5,-72.5"/>
<text text-anchor="start" x="1334.5" y="-83.9" font-family="Arial" font-size="14.00" fill="#000000">review_format </text>
<text text-anchor="start" x="1426.2798" y="-83.9" font-family="Arial" font-size="14.00" fill="#666666">[VARCHAR(32)]</text>
<polygon fill="none" stroke="#000000" points="1327.5,-42.5 1327.5,-72.5 1561.5,-72.5 1561.5,-42.5 1327.5,-42.5"/>
<text text-anchor="start" x="1334.5" y="-53.9" font-family="Arial" font-size="14.00" fill="#000000">end_date </text>
<text text-anchor="start" x="1396.7594" y="-53.9" font-family="Arial" font-size="14.00" fill="#666666">[DATE]</text>
</g>
<!-- work_order -->
<g id="node6" class="node">
<title>work_order</title>
<polygon fill="#efefef" stroke="transparent" points="1665.5,-552.5 1665.5,-587.5 1851.5,-587.5 1851.5,-552.5 1665.5,-552.5"/>
<polygon fill="none" stroke="#000000" points="1665.5,-552.5 1665.5,-587.5 1851.5,-587.5 1851.5,-552.5 1665.5,-552.5"/>
<text text-anchor="start" x="1692.4907" y="-565.3" font-family="Arial Bold" font-size="18.00" fill="#000000">work_order</text>
<text text-anchor="start" x="1782.4925" y="-565.3" font-family="Arial" font-size="14.00" fill="#000000"> </text>
<text text-anchor="start" x="1786.3831" y="-565.3" font-family="Arial" font-size="14.00" fill="#666666">[table]</text>
<polygon fill="none" stroke="#000000" points="1665.5,-522.5 1665.5,-552.5 1851.5,-552.5 1851.5,-522.5 1665.5,-522.5"/>
<text text-anchor="start" x="1672.5" y="-533.9" font-family="Arial" font-size="14.00" fill="#000000">num </text>
<text text-anchor="start" x="1703.6164" y="-533.9" font-family="Arial" font-size="14.00" fill="#666666">[INTEGER]</text>
<polygon fill="none" stroke="#000000" points="1665.5,-492.5 1665.5,-522.5 1851.5,-522.5 1851.5,-492.5 1665.5,-492.5"/>
<text text-anchor="start" x="1672.5" y="-503.9" font-family="Arial" font-size="14.00" fill="#000000">report_date </text>
<text text-anchor="start" x="1747.9712" y="-503.9" font-family="Arial" font-size="14.00" fill="#666666">[DATE]</text>
<polygon fill="none" stroke="#000000" points="1665.5,-462.5 1665.5,-492.5 1851.5,-492.5 1851.5,-462.5 1665.5,-462.5"/>
<text text-anchor="start" x="1672.5" y="-473.9" font-family="Arial" font-size="14.00" fill="#000000">alias </text>
<text text-anchor="start" x="1705.169" y="-473.9" font-family="Arial" font-size="14.00" fill="#666666">[VARCHAR(24)]</text>
<polygon fill="none" stroke="#000000" points="1665.5,-432.5 1665.5,-462.5 1851.5,-462.5 1851.5,-432.5 1665.5,-432.5"/>
<text text-anchor="start" x="1672.5" y="-443.9" font-family="Arial" font-size="14.00" fill="#000000">location </text>
<text text-anchor="start" x="1724.6248" y="-443.9" font-family="Arial" font-size="14.00" fill="#666666">[VARCHAR(12)]</text>
<polygon fill="none" stroke="#000000" points="1665.5,-402.5 1665.5,-432.5 1851.5,-432.5 1851.5,-402.5 1665.5,-402.5"/>
<text text-anchor="start" x="1672.5" y="-413.9" font-family="Arial" font-size="14.00" fill="#000000">work_type </text>
<text text-anchor="start" x="1740.1788" y="-413.9" font-family="Arial" font-size="14.00" fill="#666666">[VARCHAR(8)]</text>
<polygon fill="none" stroke="#000000" points="1665.5,-372.5 1665.5,-402.5 1851.5,-402.5 1851.5,-372.5 1665.5,-372.5"/>
<text text-anchor="start" x="1672.5" y="-383.9" font-family="Arial" font-size="14.00" fill="#000000">description </text>
<text text-anchor="start" x="1744.068" y="-383.9" font-family="Arial" font-size="14.00" fill="#666666">[TEXT]</text>
<polygon fill="none" stroke="#000000" points="1665.5,-342.5 1665.5,-372.5 1851.5,-372.5 1851.5,-342.5 1665.5,-342.5"/>
<text text-anchor="start" x="1672.1557" y="-353.9" font-family="Arial" font-size="14.00" fill="#000000">asset_type </text>
<text text-anchor="start" x="1743.7405" y="-353.9" font-family="Arial" font-size="14.00" fill="#666666">[VARCHAR(32)]</text>
<polygon fill="none" stroke="#000000" points="1665.5,-312.5 1665.5,-342.5 1851.5,-342.5 1851.5,-312.5 1665.5,-312.5"/>
<text text-anchor="start" x="1672.5" y="-323.9" font-family="Arial" font-size="14.00" fill="#000000">bartdept </text>
<text text-anchor="start" x="1727.7454" y="-323.9" font-family="Arial" font-size="14.00" fill="#666666">[VARCHAR(32)]</text>
<polygon fill="none" stroke="#000000" points="1665.5,-282.5 1665.5,-312.5 1851.5,-312.5 1851.5,-282.5 1665.5,-282.5"/>
<text text-anchor="start" x="1672.5" y="-293.9" font-family="Arial" font-size="14.00" fill="#000000">status </text>
<text text-anchor="start" x="1713.737" y="-293.9" font-family="Arial" font-size="14.00" fill="#666666">[VARCHAR(16)]</text>
<polygon fill="none" stroke="#000000" points="1665.5,-252.5 1665.5,-282.5 1851.5,-282.5 1851.5,-252.5 1665.5,-252.5"/>
<text text-anchor="start" x="1672.5" y="-263.9" font-family="Arial" font-size="14.00" fill="#000000">start </text>
<text text-anchor="start" x="1703.615" y="-263.9" font-family="Arial" font-size="14.00" fill="#666666">[DATE]</text>
<polygon fill="none" stroke="#000000" points="1665.5,-222.5 1665.5,-252.5 1851.5,-252.5 1851.5,-222.5 1665.5,-222.5"/>
<text text-anchor="start" x="1672.5" y="-233.9" font-family="Arial" font-size="14.00" fill="#000000">finish </text>
<text text-anchor="start" x="1709.0596" y="-233.9" font-family="Arial" font-size="14.00" fill="#666666">[DATE]</text>
<polygon fill="none" stroke="#000000" points="1665.5,-192.5 1665.5,-222.5 1851.5,-222.5 1851.5,-192.5 1665.5,-192.5"/>
<text text-anchor="start" x="1672.5" y="-203.9" font-family="Arial" font-size="14.00" fill="#000000">labor_hours </text>
<text text-anchor="start" x="1750.2966" y="-203.9" font-family="Arial" font-size="14.00" fill="#666666">[FLOAT]</text>
<polygon fill="none" stroke="#000000" points="1665.5,-162.5 1665.5,-192.5 1851.5,-192.5 1851.5,-162.5 1665.5,-162.5"/>
<text text-anchor="start" x="1672.5" y="-173.9" font-family="Arial" font-size="14.00" fill="#000000">material_cost </text>
<text text-anchor="start" x="1759.6192" y="-173.9" font-family="Arial" font-size="14.00" fill="#666666">[FLOAT]</text>
</g>
<!-- meter_reading_tmp -->
<g id="node7" class="node">
<title>meter_reading_tmp</title>
<polygon fill="#efefef" stroke="transparent" points="1955.5,-507.5 1955.5,-542.5 2167.5,-542.5 2167.5,-507.5 1955.5,-507.5"/>
<polygon fill="none" stroke="#000000" points="1955.5,-507.5 1955.5,-542.5 2167.5,-542.5 2167.5,-507.5 1955.5,-507.5"/>
<text text-anchor="start" x="1962.4769" y="-520.3" font-family="Arial Bold" font-size="18.00" fill="#000000">meter_reading_tmp</text>
<text text-anchor="start" x="2118.5063" y="-520.3" font-family="Arial" font-size="14.00" fill="#000000"> </text>
<text text-anchor="start" x="2122.3969" y="-520.3" font-family="Arial" font-size="14.00" fill="#666666">[table]</text>
<polygon fill="none" stroke="#000000" points="1955.5,-477.5 1955.5,-507.5 2167.5,-507.5 2167.5,-477.5 1955.5,-477.5"/>
<text text-anchor="start" x="1962.5" y="-488.9" font-family="Arial" font-size="14.00" fill="#000000">bartdept </text>
<text text-anchor="start" x="2017.7454" y="-488.9" font-family="Arial" font-size="14.00" fill="#666666">[varchar(8)]</text>
<polygon fill="none" stroke="#000000" points="1955.5,-447.5 1955.5,-477.5 2167.5,-477.5 2167.5,-447.5 1955.5,-447.5"/>
<text text-anchor="start" x="1962.5" y="-458.9" font-family="Arial" font-size="14.00" fill="#000000">assetnum </text>
<text text-anchor="start" x="2027.0722" y="-458.9" font-family="Arial" font-size="14.00" fill="#666666">[int]</text>
<polygon fill="none" stroke="#000000" points="1955.5,-417.5 1955.5,-447.5 2167.5,-447.5 2167.5,-417.5 1955.5,-417.5"/>
<text text-anchor="start" x="1962.5" y="-428.9" font-family="Arial" font-size="14.00" fill="#000000">description </text>
<text text-anchor="start" x="2034.068" y="-428.9" font-family="Arial" font-size="14.00" fill="#666666">[varchar(100)]</text>
<polygon fill="none" stroke="#000000" points="1955.5,-387.5 1955.5,-417.5 2167.5,-417.5 2167.5,-387.5 1955.5,-387.5"/>
<text text-anchor="start" x="1962.5" y="-398.9" font-family="Arial" font-size="14.00" fill="#000000">status </text>
<text text-anchor="start" x="2003.737" y="-398.9" font-family="Arial" font-size="14.00" fill="#666666">[varchar(16)]</text>
<polygon fill="none" stroke="#000000" points="1955.5,-357.5 1955.5,-387.5 2167.5,-387.5 2167.5,-357.5 1955.5,-357.5"/>
<text text-anchor="start" x="1962.5" y="-368.9" font-family="Arial" font-size="14.00" fill="#000000">metername </text>
<text text-anchor="start" x="2037.176" y="-368.9" font-family="Arial" font-size="14.00" fill="#666666">[varchar(16)]</text>
<polygon fill="none" stroke="#000000" points="1955.5,-327.5 1955.5,-357.5 2167.5,-357.5 2167.5,-327.5 1955.5,-327.5"/>
<text text-anchor="start" x="1962.5" y="-338.9" font-family="Arial" font-size="14.00" fill="#000000">readingsource </text>
<text text-anchor="start" x="2055.0792" y="-338.9" font-family="Arial" font-size="14.00" fill="#666666">[varchar(32)]</text>
<polygon fill="none" stroke="#000000" points="1955.5,-297.5 1955.5,-327.5 2167.5,-327.5 2167.5,-297.5 1955.5,-297.5"/>
<text text-anchor="start" x="1962.5" y="-308.9" font-family="Arial" font-size="14.00" fill="#000000">reading </text>
<text text-anchor="start" x="2013.0708" y="-308.9" font-family="Arial" font-size="14.00" fill="#666666">[int]</text>
<polygon fill="none" stroke="#000000" points="1955.5,-267.5 1955.5,-297.5 2167.5,-297.5 2167.5,-267.5 1955.5,-267.5"/>
<text text-anchor="start" x="1962.5" y="-278.9" font-family="Arial" font-size="14.00" fill="#000000">delta </text>
<text text-anchor="start" x="1996.7356" y="-278.9" font-family="Arial" font-size="14.00" fill="#666666">[int]</text>
<polygon fill="none" stroke="#000000" points="1955.5,-237.5 1955.5,-267.5 2167.5,-267.5 2167.5,-237.5 1955.5,-237.5"/>
<text text-anchor="start" x="1962.5" y="-248.9" font-family="Arial" font-size="14.00" fill="#000000">readingdate </text>
<text text-anchor="start" x="2040.3092" y="-248.9" font-family="Arial" font-size="14.00" fill="#666666">[date]</text>
<polygon fill="none" stroke="#000000" points="1955.5,-207.5 1955.5,-237.5 2167.5,-237.5 2167.5,-207.5 1955.5,-207.5"/>
<text text-anchor="start" x="1962.5" y="-218.9" font-family="Arial" font-size="14.00" fill="#000000">enterdate </text>
<text text-anchor="start" x="2025.528" y="-218.9" font-family="Arial" font-size="14.00" fill="#666666">[date]</text>
</g>
<!-- asset_aliases -->
<g id="node8" class="node">
<title>asset_aliases</title>
<polygon fill="#efefef" stroke="transparent" points="2272.5,-417.5 2272.5,-452.5 2437.5,-452.5 2437.5,-417.5 2272.5,-417.5"/>
<polygon fill="none" stroke="#000000" points="2272.5,-417.5 2272.5,-452.5 2437.5,-452.5 2437.5,-417.5 2272.5,-417.5"/>
<text text-anchor="start" x="2279.4777" y="-430.3" font-family="Arial Bold" font-size="18.00" fill="#000000">asset_aliases</text>
<text text-anchor="start" x="2388.5055" y="-430.3" font-family="Arial" font-size="14.00" fill="#000000"> </text>
<text text-anchor="start" x="2392.3961" y="-430.3" font-family="Arial" font-size="14.00" fill="#666666">[table]</text>
<polygon fill="none" stroke="#000000" points="2272.5,-387.5 2272.5,-417.5 2437.5,-417.5 2437.5,-387.5 2272.5,-387.5"/>
<text text-anchor="start" x="2279.5" y="-398.9" font-family="Arial" font-size="14.00" fill="#000000">asset </text>
<text text-anchor="start" x="2316.8464" y="-398.9" font-family="Arial" font-size="14.00" fill="#666666">[integer]</text>
<polygon fill="none" stroke="#000000" points="2272.5,-357.5 2272.5,-387.5 2437.5,-387.5 2437.5,-357.5 2272.5,-357.5"/>
<text text-anchor="start" x="2279.5" y="-368.9" font-family="Arial" font-size="14.00" fill="#000000">alias </text>
<text text-anchor="start" x="2312.169" y="-368.9" font-family="Arial" font-size="14.00" fill="#666666">[varchar(32)]</text>
<polygon fill="none" stroke="#000000" points="2272.5,-327.5 2272.5,-357.5 2437.5,-357.5 2437.5,-327.5 2272.5,-327.5"/>
<text text-anchor="start" x="2279.5" y="-338.9" font-family="Arial" font-size="14.00" fill="#000000">status </text>
<text text-anchor="start" x="2320.737" y="-338.9" font-family="Arial" font-size="14.00" fill="#666666">[varchar(32)]</text>
<polygon fill="none" stroke="#000000" points="2272.5,-297.5 2272.5,-327.5 2437.5,-327.5 2437.5,-297.5 2272.5,-297.5"/>
<text text-anchor="start" x="2279.5" y="-308.9" font-family="Arial" font-size="14.00" fill="#000000">location </text>
<text text-anchor="start" x="2331.6248" y="-308.9" font-family="Arial" font-size="14.00" fill="#666666">[varchar(16)]</text>
</g>
</g>
</svg>
