<?xml version="1.0" encoding="UTF-8" standalone="no"?>
<!DOCTYPE svg PUBLIC "-//W3C//DTD SVG 1.1//EN"
 "http://www.w3.org/Graphics/SVG/1.1/DTD/svg11.dtd">
<!-- Generated by graphviz version 2.40.1 (20161225.0304)
 -->
<!-- Title: work_order Pages: 1 -->
<svg width="286pt" height="525pt"
 viewBox="0.00 0.00 286.00 525.00" xmlns="http://www.w3.org/2000/svg" xmlns:xlink="http://www.w3.org/1999/xlink">
<g id="graph0" class="graph" transform="scale(1 1) rotate(0) translate(4 521)">
<title>work_order</title>
<polygon fill="#ffffff" stroke="transparent" points="-4,4 -4,-521 282,-521 282,4 -4,4"/>
<!-- work_order -->
<g id="node1" class="node">
<title>work_order</title>
<polygon fill="#efefef" stroke="transparent" points="46,-435.5 46,-470.5 232,-470.5 232,-435.5 46,-435.5"/>
<polygon fill="none" stroke="#000000" points="46,-435.5 46,-470.5 232,-470.5 232,-435.5 46,-435.5"/>
<text text-anchor="start" x="72.9907" y="-448.3" font-family="Arial Bold" font-size="18.00" fill="#000000">work_order</text>
<text text-anchor="start" x="162.9925" y="-448.3" font-family="Arial" font-size="14.00" fill="#000000"> </text>
<text text-anchor="start" x="166.8831" y="-448.3" font-family="Arial" font-size="14.00" fill="#666666">[table]</text>
<polygon fill="none" stroke="#000000" points="46,-405.5 46,-435.5 232,-435.5 232,-405.5 46,-405.5"/>
<text text-anchor="start" x="53" y="-416.9" font-family="Arial" font-size="14.00" fill="#000000">num </text>
<text text-anchor="start" x="84.1164" y="-416.9" font-family="Arial" font-size="14.00" fill="#666666">[INTEGER]</text>
<polygon fill="none" stroke="#000000" points="46,-375.5 46,-405.5 232,-405.5 232,-375.5 46,-375.5"/>
<text text-anchor="start" x="53" y="-386.9" font-family="Arial" font-size="14.00" fill="#000000">report_date </text>
<text text-anchor="start" x="128.4712" y="-386.9" font-family="Arial" font-size="14.00" fill="#666666">[DATE]</text>
<polygon fill="none" stroke="#000000" points="46,-345.5 46,-375.5 232,-375.5 232,-345.5 46,-345.5"/>
<text text-anchor="start" x="53" y="-356.9" font-family="Arial" font-size="14.00" fill="#000000">alias </text>
<text text-anchor="start" x="85.669" y="-356.9" font-family="Arial" font-size="14.00" fill="#666666">[VARCHAR(24)]</text>
<polygon fill="none" stroke="#000000" points="46,-315.5 46,-345.5 232,-345.5 232,-315.5 46,-315.5"/>
<text text-anchor="start" x="53" y="-326.9" font-family="Arial" font-size="14.00" fill="#000000">location </text>
<text text-anchor="start" x="105.1248" y="-326.9" font-family="Arial" font-size="14.00" fill="#666666">[VARCHAR(12)]</text>
<polygon fill="none" stroke="#000000" points="46,-285.5 46,-315.5 232,-315.5 232,-285.5 46,-285.5"/>
<text text-anchor="start" x="53" y="-296.9" font-family="Arial" font-size="14.00" fill="#000000">work_type </text>
<text text-anchor="start" x="120.6788" y="-296.9" font-family="Arial" font-size="14.00" fill="#666666">[VARCHAR(8)]</text>
<polygon fill="none" stroke="#000000" points="46,-255.5 46,-285.5 232,-285.5 232,-255.5 46,-255.5"/>
<text text-anchor="start" x="53" y="-266.9" font-family="Arial" font-size="14.00" fill="#000000">description </text>
<text text-anchor="start" x="124.568" y="-266.9" font-family="Arial" font-size="14.00" fill="#666666">[TEXT]</text>
<polygon fill="none" stroke="#000000" points="46,-225.5 46,-255.5 232,-255.5 232,-225.5 46,-225.5"/>
<text text-anchor="start" x="52.6557" y="-236.9" font-family="Arial" font-size="14.00" fill="#000000">asset_type </text>
<text text-anchor="start" x="124.2405" y="-236.9" font-family="Arial" font-size="14.00" fill="#666666">[VARCHAR(32)]</text>
<polygon fill="none" stroke="#000000" points="46,-195.5 46,-225.5 232,-225.5 232,-195.5 46,-195.5"/>
<text text-anchor="start" x="53" y="-206.9" font-family="Arial" font-size="14.00" fill="#000000">bartdept </text>
<text text-anchor="start" x="108.2454" y="-206.9" font-family="Arial" font-size="14.00" fill="#666666">[VARCHAR(32)]</text>
<polygon fill="none" stroke="#000000" points="46,-165.5 46,-195.5 232,-195.5 232,-165.5 46,-165.5"/>
<text text-anchor="start" x="53" y="-176.9" font-family="Arial" font-size="14.00" fill="#000000">status </text>
<text text-anchor="start" x="94.237" y="-176.9" font-family="Arial" font-size="14.00" fill="#666666">[VARCHAR(16)]</text>
<polygon fill="none" stroke="#000000" points="46,-135.5 46,-165.5 232,-165.5 232,-135.5 46,-135.5"/>
<text text-anchor="start" x="53" y="-146.9" font-family="Arial" font-size="14.00" fill="#000000">start </text>
<text text-anchor="start" x="84.115" y="-146.9" font-family="Arial" font-size="14.00" fill="#666666">[DATE]</text>
<polygon fill="none" stroke="#000000" points="46,-105.5 46,-135.5 232,-135.5 232,-105.5 46,-105.5"/>
<text text-anchor="start" x="53" y="-116.9" font-family="Arial" font-size="14.00" fill="#000000">finish </text>
<text text-anchor="start" x="89.5596" y="-116.9" font-family="Arial" font-size="14.00" fill="#666666">[DATE]</text>
<polygon fill="none" stroke="#000000" points="46,-75.5 46,-105.5 232,-105.5 232,-75.5 46,-75.5"/>
<text text-anchor="start" x="53" y="-86.9" font-family="Arial" font-size="14.00" fill="#000000">labor_hours </text>
<text text-anchor="start" x="130.7966" y="-86.9" font-family="Arial" font-size="14.00" fill="#666666">[FLOAT]</text>
<polygon fill="none" stroke="#000000" points="46,-45.5 46,-75.5 232,-75.5 232,-45.5 46,-45.5"/>
<text text-anchor="start" x="53" y="-56.9" font-family="Arial" font-size="14.00" fill="#000000">material_cost </text>
<text text-anchor="start" x="140.1192" y="-56.9" font-family="Arial" font-size="14.00" fill="#666666">[FLOAT]</text>
<polygon fill="none" stroke="#000000" stroke-width="3" points="44.5,-44.5 44.5,-472.5 233.5,-472.5 233.5,-44.5 44.5,-44.5"/>
</g>
</g>
</svg>
